/* XPM */
static char *result[] = {
/* columns rows colors chars-per-pixel */
"64 64 4 1 ",
"  c #434A5F",
". c #CFC6B8",
"X c white",
"o c None",
/* pixels */
"oooooooooooooooooooooooooooooooooooooooooooooooooooooooooooooooo",
"oooooooooooooooooooooooooooooooooooooooooooooooooooooooooooooooo",
"oooooooooooooooooooooooooooooooooooooooooooooooooooooooooooooooo",
"oooooooooooooooooooooooooooooooooooooooooooooooooooooooooooooooo",
"oooooooooooooooo                                oooooooooooooooo",
"oooooooooooooooo                                oooooooooooooooo",
"oooooooooooooooo                                oooooooooooooooo",
"oooooooooooooooo                                oooooooooooooooo",
"oooooooooooo                                        oooooooooooo",
"oooooooooooo                                        oooooooooooo",
"oooooooooooo                                        oooooooooooo",
"oooooooooooo                                        oooooooooooo",
"oooooooo            XXXX....XXXXXXXXXXXXXXXX            oooooooo",
"oooooooo            XXXX....XXXXXXXXXXXXXXXX            oooooooo",
"oooooooo            XXXX....XXXXXXXXXXXXXXXX            oooooooo",
"oooooooo            XXXX....XXXXXXXXXXXXXXXX            oooooooo",
"oooooooo        XXXXXXXX....XXXXXXXXXXXXXXXXXXXX        oooooooo",
"oooooooo        XXXXXXXX....XXXXXXXXXXXXXXXXXXXX        oooooooo",
"oooooooo        XXXXXXXX....XXXXXXXXXXXXXXXXXXXX        oooooooo",
"oooooooo        XXXXXXXX....XXXXXXXXXXXXXXXXXXXX        oooooooo",
"oooooooo        XXXXXXXX                XXXXXXXX        oooooooo",
"oooooooo        XXXXXXXX                XXXXXXXX        oooooooo",
"oooooooo        XXXXXXXX                XXXXXXXX        oooooooo",
"oooooooo        XXXXXXXX                XXXXXXXX        oooooooo",
"oooooooo        XXXXXXXX                XXXXXXXX        oooooooo",
"oooooooo        XXXXXXXX                XXXXXXXX        oooooooo",
"oooooooo        XXXXXXXX                XXXXXXXX        oooooooo",
"oooooooo        XXXXXXXX                XXXXXXXX        oooooooo",
"oooooooo        XXXXXXXX                XXXXXXXX        oooooooo",
"oooooooo        XXXXXXXX                XXXXXXXX        oooooooo",
"oooooooo        XXXXXXXX                XXXXXXXX        oooooooo",
"oooooooo        XXXXXXXX                XXXXXXXX        oooooooo",
"oooooooo        XXXXXXXX                XXXXXXXX        oooooooo",
"oooooooo        XXXXXXXX                XXXXXXXX        oooooooo",
"oooooooo        XXXXXXXX                XXXXXXXX        oooooooo",
"oooooooo        XXXXXXXX                XXXXXXXX        oooooooo",
"oooooooo        XXXXXXXX                XXXXXXXX        oooooooo",
"oooooooo        XXXXXXXX                XXXXXXXX        oooooooo",
"oooooooo        XXXXXXXX                XXXXXXXX        oooooooo",
"oooooooo        XXXXXXXX                XXXXXXXX        oooooooo",
"oooooooo        XXXXXXXX                XXXXXXXX        oooooooo",
"oooooooo        XXXXXXXX                XXXXXXXX        oooooooo",
"oooooooo        XXXXXXXX                XXXXXXXX        oooooooo",
"oooooooo        XXXXXXXX                XXXXXXXX        oooooooo",
"oooooooo        XXXXXXXXXXXXXXXXXXXX....XXXXXXXX        oooooooo",
"oooooooo        XXXXXXXXXXXXXXXXXXXX....XXXXXXXX        oooooooo",
"oooooooo        XXXXXXXXXXXXXXXXXXXX....XXXXXXXX        oooooooo",
"oooooooo        XXXXXXXXXXXXXXXXXXXX....XXXXXXXX        oooooooo",
"oooooooo            XXXXXXXXXXXXXXXX....XXXX            oooooooo",
"oooooooo            XXXXXXXXXXXXXXXX....XXXX            oooooooo",
"oooooooo            XXXXXXXXXXXXXXXX....XXXX            oooooooo",
"oooooooo            XXXXXXXXXXXXXXXX....XXXX            oooooooo",
"oooooooooooo                                        oooooooooooo",
"oooooooooooo                                        oooooooooooo",
"oooooooooooo                                        oooooooooooo",
"oooooooooooo                                        oooooooooooo",
"oooooooooooooooo                                oooooooooooooooo",
"oooooooooooooooo                                oooooooooooooooo",
"oooooooooooooooo                                oooooooooooooooo",
"oooooooooooooooo                                oooooooooooooooo",
"oooooooooooooooooooooooooooooooooooooooooooooooooooooooooooooooo",
"oooooooooooooooooooooooooooooooooooooooooooooooooooooooooooooooo",
"oooooooooooooooooooooooooooooooooooooooooooooooooooooooooooooooo",
"oooooooooooooooooooooooooooooooooooooooooooooooooooooooooooooooo"
};
