/* XPM */
static char *result[] = {
/* columns rows colors chars-per-pixel */
"64 64 4 1 ",
"  c #434A5F",
". c #CFC6B8",
"X c white",
"o c None",
/* pixels */
"oooooooooooooooooooooooooooooooooooooooooooooooooooooooooooooooo",
"oooooooooooooooooooooooooooooooooooooooooooooooooooooooooooooooo",
"oooooooooooooooooooooooooooooooooooooooooooooooooooooooooooooooo",
"oooooooooooooooooooooooooooooooooooooooooooooooooooooooooooooooo",
"oooooooooooo                                oooooooooooooooooooo",
"oooooooooooo                                oooooooooooooooooooo",
"oooooooooooo                                oooooooooooooooooooo",
"oooooooooooo                                oooooooooooooooooooo",
"oooooooooooo                                oooooooooooooooooooo",
"oooooooooooo                                oooooooooooooooooooo",
"oooooooooooo                                oooooooooooooooooooo",
"oooooooooooo                                oooooooooooooooooooo",
"oooooooooooo        XXXX....XXXXXXXX        oooooooooooooooooooo",
"oooooooooooo        XXXX....XXXXXXXX        oooooooooooooooooooo",
"oooooooooooo        XXXX....XXXXXXXX        oooooooooooooooooooo",
"oooooooooooo        XXXX....XXXXXXXX        oooooooooooooooooooo",
"oooooooooooo        XXXX....XXXXXXXX        oooooooooooooooooooo",
"oooooooooooo        XXXX....XXXXXXXX        oooooooooooooooooooo",
"oooooooooooo        XXXX....XXXXXXXX        oooooooooooooooooooo",
"oooooooooooo        XXXX....XXXXXXXX        oooooooooooooooooooo",
"oooooooooooo                XXXXXXXX        oooooooooooooooooooo",
"oooooooooooo                XXXXXXXX        oooooooooooooooooooo",
"oooooooooooo                XXXXXXXX        oooooooooooooooooooo",
"oooooooooooo                XXXXXXXX        oooooooooooooooooooo",
"oooooooooooo                XXXXXXXX        oooooooooooooooooooo",
"oooooooooooo                XXXXXXXX        oooooooooooooooooooo",
"oooooooooooo                XXXXXXXX        oooooooooooooooooooo",
"oooooooooooo                XXXXXXXX        oooooooooooooooooooo",
"oooooooooooooooooooo        XXXXXXXX        oooooooooooooooooooo",
"oooooooooooooooooooo        XXXXXXXX        oooooooooooooooooooo",
"oooooooooooooooooooo        XXXXXXXX        oooooooooooooooooooo",
"oooooooooooooooooooo        XXXXXXXX        oooooooooooooooooooo",
"oooooooooooooooooooo        XXXXXXXX        oooooooooooooooooooo",
"oooooooooooooooooooo        XXXXXXXX        oooooooooooooooooooo",
"oooooooooooooooooooo        XXXXXXXX        oooooooooooooooooooo",
"oooooooooooooooooooo        XXXXXXXX        oooooooooooooooooooo",
"oooooooooooooooooooo        XXXXXXXX        oooooooooooooooooooo",
"oooooooooooooooooooo        XXXXXXXX        oooooooooooooooooooo",
"oooooooooooooooooooo        XXXXXXXX        oooooooooooooooooooo",
"oooooooooooooooooooo        XXXXXXXX        oooooooooooooooooooo",
"oooooooooooooooooooo        XXXXXXXX        oooooooooooooooooooo",
"oooooooooooooooooooo        XXXXXXXX        oooooooooooooooooooo",
"oooooooooooooooooooo        XXXXXXXX        oooooooooooooooooooo",
"oooooooooooooooooooo        XXXXXXXX        oooooooooooooooooooo",
"oooooooooooooooooooo        XXXXXXXX        oooooooooooooooooooo",
"oooooooooooooooooooo        XXXXXXXX        oooooooooooooooooooo",
"oooooooooooooooooooo        XXXXXXXX        oooooooooooooooooooo",
"oooooooooooooooooooo        XXXXXXXX        oooooooooooooooooooo",
"oooooooooooooooooooo        XXXXXXXX        oooooooooooooooooooo",
"oooooooooooooooooooo        XXXXXXXX        oooooooooooooooooooo",
"oooooooooooooooooooo        XXXXXXXX        oooooooooooooooooooo",
"oooooooooooooooooooo        XXXXXXXX        oooooooooooooooooooo",
"oooooooooooooooooooo                        oooooooooooooooooooo",
"oooooooooooooooooooo                        oooooooooooooooooooo",
"oooooooooooooooooooo                        oooooooooooooooooooo",
"oooooooooooooooooooo                        oooooooooooooooooooo",
"oooooooooooooooooooo                        oooooooooooooooooooo",
"oooooooooooooooooooo                        oooooooooooooooooooo",
"oooooooooooooooooooo                        oooooooooooooooooooo",
"oooooooooooooooooooo                        oooooooooooooooooooo",
"oooooooooooooooooooooooooooooooooooooooooooooooooooooooooooooooo",
"oooooooooooooooooooooooooooooooooooooooooooooooooooooooooooooooo",
"oooooooooooooooooooooooooooooooooooooooooooooooooooooooooooooooo",
"oooooooooooooooooooooooooooooooooooooooooooooooooooooooooooooooo"
};
