/* XPM */
static char *result[] = {
/* columns rows colors chars-per-pixel */
"64 64 4 1 ",
"  c #434A5F",
". c #CFC6B8",
"X c white",
"o c None",
/* pixels */
"oooooooooooooooooooooooooooooooooooooooooooooooooooooooooooooooo",
"oooooooooooooooooooooooooooooooooooooooooooooooooooooooooooooooo",
"oooooooooooooooooooooooooooooooooooooooooooooooooooooooooooooooo",
"oooooooooooooooooooooooooooooooooooooooooooooooooooooooooooooooo",
"oooooooo                                        oooooooooooooooo",
"oooooooo                                        oooooooooooooooo",
"oooooooo                                        oooooooooooooooo",
"oooooooo                                        oooooooooooooooo",
"oooooooo                                            oooooooooooo",
"oooooooo                                            oooooooooooo",
"oooooooo                                            oooooooooooo",
"oooooooo                                            oooooooooooo",
"oooooooo        XXXXXXXXXXXXXXXXXXXXXXXXXXXX            oooooooo",
"oooooooo        XXXXXXXXXXXXXXXXXXXXXXXXXXXX            oooooooo",
"oooooooo        XXXXXXXXXXXXXXXXXXXXXXXXXXXX            oooooooo",
"oooooooo        XXXXXXXXXXXXXXXXXXXXXXXXXXXX            oooooooo",
"oooooooo        XXXXXXXXXXXXXXXXXXXXXXXXXXXXXXXX        oooooooo",
"oooooooo        XXXXXXXXXXXXXXXXXXXXXXXXXXXXXXXX        oooooooo",
"oooooooo        XXXXXXXXXXXXXXXXXXXXXXXXXXXXXXXX        oooooooo",
"oooooooo        XXXXXXXXXXXXXXXXXXXXXXXXXXXXXXXX        oooooooo",
"oooooooo                                XXXXXXXX        oooooooo",
"oooooooo                                XXXXXXXX        oooooooo",
"oooooooo                                XXXXXXXX        oooooooo",
"oooooooo                                XXXXXXXX        oooooooo",
"oooooooo                                XXXXXXXX        oooooooo",
"oooooooo                                XXXXXXXX        oooooooo",
"oooooooo                                XXXXXXXX        oooooooo",
"oooooooo                                XXXXXXXX        oooooooo",
"oooooooo        XXXXXXXXXXXXXXXXXXXX....XXXXXXXX        oooooooo",
"oooooooo        XXXXXXXXXXXXXXXXXXXX....XXXXXXXX        oooooooo",
"oooooooo        XXXXXXXXXXXXXXXXXXXX....XXXXXXXX        oooooooo",
"oooooooo        XXXXXXXXXXXXXXXXXXXX....XXXXXXXX        oooooooo",
"oooooooo        XXXXXXXXXXXXXXXXXXXX....XXXXXXXX        oooooooo",
"oooooooo        XXXXXXXXXXXXXXXXXXXX....XXXXXXXX        oooooooo",
"oooooooo        XXXXXXXXXXXXXXXXXXXX....XXXXXXXX        oooooooo",
"oooooooo        XXXXXXXXXXXXXXXXXXXX....XXXXXXXX        oooooooo",
"oooooooo                                XXXXXXXX        oooooooo",
"oooooooo                                XXXXXXXX        oooooooo",
"oooooooo                                XXXXXXXX        oooooooo",
"oooooooo                                XXXXXXXX        oooooooo",
"oooooooo                                XXXXXXXX        oooooooo",
"oooooooo                                XXXXXXXX        oooooooo",
"oooooooo                                XXXXXXXX        oooooooo",
"oooooooo                                XXXXXXXX        oooooooo",
"oooooooo        XXXXXXXXXXXXXXXXXXXXXXXXXXXXXXXX        oooooooo",
"oooooooo        XXXXXXXXXXXXXXXXXXXXXXXXXXXXXXXX        oooooooo",
"oooooooo        XXXXXXXXXXXXXXXXXXXXXXXXXXXXXXXX        oooooooo",
"oooooooo        XXXXXXXXXXXXXXXXXXXXXXXXXXXXXXXX        oooooooo",
"oooooooo        XXXXXXXXXXXXXXXXXXXXXXXXXXXX            oooooooo",
"oooooooo        XXXXXXXXXXXXXXXXXXXXXXXXXXXX            oooooooo",
"oooooooo        XXXXXXXXXXXXXXXXXXXXXXXXXXXX            oooooooo",
"oooooooo        XXXXXXXXXXXXXXXXXXXXXXXXXXXX            oooooooo",
"oooooooo                                            oooooooooooo",
"oooooooo                                            oooooooooooo",
"oooooooo                                            oooooooooooo",
"oooooooo                                            oooooooooooo",
"oooooooo                                        oooooooooooooooo",
"oooooooo                                        oooooooooooooooo",
"oooooooo                                        oooooooooooooooo",
"oooooooo                                        oooooooooooooooo",
"oooooooooooooooooooooooooooooooooooooooooooooooooooooooooooooooo",
"oooooooooooooooooooooooooooooooooooooooooooooooooooooooooooooooo",
"oooooooooooooooooooooooooooooooooooooooooooooooooooooooooooooooo",
"oooooooooooooooooooooooooooooooooooooooooooooooooooooooooooooooo"
};
