/* XPM */
static char *result[] = {
/* columns rows colors chars-per-pixel */
"64 64 4 1 ",
"  c #434A5F",
". c #CFC6B8",
"X c white",
"o c None",
/* pixels */
"oooooooooooooooooooooooooooooooooooooooooooooooooooooooooooooooo",
"oooooooooooooooooooooooooooooooooooooooooooooooooooooooooooooooo",
"oooooooooooooooooooooooooooooooooooooooooooooooooooooooooooooooo",
"oooooooooooooooooooooooooooooooooooooooooooooooooooooooooooooooo",
"oooooooo                                                oooooooo",
"oooooooo                                                oooooooo",
"oooooooo                                                oooooooo",
"oooooooo                                                oooooooo",
"oooooooo                                                oooooooo",
"oooooooo                                                oooooooo",
"oooooooo                                                oooooooo",
"oooooooo                                                oooooooo",
"oooooooo        XXXXXXXX                XXXXXXXX        oooooooo",
"oooooooo        XXXXXXXX                XXXXXXXX        oooooooo",
"oooooooo        XXXXXXXX                XXXXXXXX        oooooooo",
"oooooooo        XXXXXXXX                XXXXXXXX        oooooooo",
"oooooooo        XXXXXXXX                XXXXXXXX        oooooooo",
"oooooooo        XXXXXXXX                XXXXXXXX        oooooooo",
"oooooooo        XXXXXXXX                XXXXXXXX        oooooooo",
"oooooooo        XXXXXXXX                XXXXXXXX        oooooooo",
"oooooooo        XXXXXXXX                XXXXXXXX        oooooooo",
"oooooooo        XXXXXXXX                XXXXXXXX        oooooooo",
"oooooooo        XXXXXXXX                XXXXXXXX        oooooooo",
"oooooooo        XXXXXXXX                XXXXXXXX        oooooooo",
"oooooooo        XXXXXXXX                XXXXXXXX        oooooooo",
"oooooooo        XXXXXXXX                XXXXXXXX        oooooooo",
"oooooooo        XXXXXXXX                XXXXXXXX        oooooooo",
"oooooooo        XXXXXXXX                XXXXXXXX        oooooooo",
"oooooooo        XXXXXXXXXXXXXXXXXXXX....XXXXXXXX        oooooooo",
"oooooooo        XXXXXXXXXXXXXXXXXXXX....XXXXXXXX        oooooooo",
"oooooooo        XXXXXXXXXXXXXXXXXXXX....XXXXXXXX        oooooooo",
"oooooooo        XXXXXXXXXXXXXXXXXXXX....XXXXXXXX        oooooooo",
"oooooooo        XXXXXXXXXXXXXXXXXXXX....XXXXXXXX        oooooooo",
"oooooooo        XXXXXXXXXXXXXXXXXXXX....XXXXXXXX        oooooooo",
"oooooooo        XXXXXXXXXXXXXXXXXXXX....XXXXXXXX        oooooooo",
"oooooooo        XXXXXXXXXXXXXXXXXXXX....XXXXXXXX        oooooooo",
"oooooooo                                XXXXXXXX        oooooooo",
"oooooooo                                XXXXXXXX        oooooooo",
"oooooooo                                XXXXXXXX        oooooooo",
"oooooooo                                XXXXXXXX        oooooooo",
"oooooooo                                XXXXXXXX        oooooooo",
"oooooooo                                XXXXXXXX        oooooooo",
"oooooooo                                XXXXXXXX        oooooooo",
"oooooooo                                XXXXXXXX        oooooooo",
"oooooooooooooooooooooooooooooooo        XXXXXXXX        oooooooo",
"oooooooooooooooooooooooooooooooo        XXXXXXXX        oooooooo",
"oooooooooooooooooooooooooooooooo        XXXXXXXX        oooooooo",
"oooooooooooooooooooooooooooooooo        XXXXXXXX        oooooooo",
"oooooooooooooooooooooooooooooooo        XXXXXXXX        oooooooo",
"oooooooooooooooooooooooooooooooo        XXXXXXXX        oooooooo",
"oooooooooooooooooooooooooooooooo        XXXXXXXX        oooooooo",
"oooooooooooooooooooooooooooooooo        XXXXXXXX        oooooooo",
"oooooooooooooooooooooooooooooooo                        oooooooo",
"oooooooooooooooooooooooooooooooo                        oooooooo",
"oooooooooooooooooooooooooooooooo                        oooooooo",
"oooooooooooooooooooooooooooooooo                        oooooooo",
"oooooooooooooooooooooooooooooooo                        oooooooo",
"oooooooooooooooooooooooooooooooo                        oooooooo",
"oooooooooooooooooooooooooooooooo                        oooooooo",
"oooooooooooooooooooooooooooooooo                        oooooooo",
"oooooooooooooooooooooooooooooooooooooooooooooooooooooooooooooooo",
"oooooooooooooooooooooooooooooooooooooooooooooooooooooooooooooooo",
"oooooooooooooooooooooooooooooooooooooooooooooooooooooooooooooooo",
"oooooooooooooooooooooooooooooooooooooooooooooooooooooooooooooooo"
};
