/* XPM */
static char *result[] = {
/* columns rows colors chars-per-pixel */
"64 64 4 1 ",
"  c #434A5F",
". c #CFC6B8",
"X c white",
"o c None",
/* pixels */
"oooooooooooooooooooooooooooooooooooooooooooooooooooooooooooooooo",
"oooooooooooooooooooooooooooooooooooooooooooooooooooooooooooooooo",
"oooooooooooooooooooooooooooooooooooooooooooooooooooooooooooooooo",
"oooooooooooooooooooooooooooooooooooooooooooooooooooooooooooooooo",
"oooooooooooooooooooo                        oooooooooooooooooooo",
"oooooooooooooooooooo                        oooooooooooooooooooo",
"oooooooooooooooooooo                        oooooooooooooooooooo",
"oooooooooooooooooooo                        oooooooooooooooooooo",
"oooooooooooooooo                            oooooooooooooooooooo",
"oooooooooooooooo                            oooooooooooooooooooo",
"oooooooooooooooo                            oooooooooooooooooooo",
"oooooooooooooooo                            oooooooooooooooooooo",
"oooooooooooo            XXXXXXXXXXXX        oooooooooooooooooooo",
"oooooooooooo            XXXXXXXXXXXX        oooooooooooooooooooo",
"oooooooooooo            XXXXXXXXXXXX        oooooooooooooooooooo",
"oooooooooooo            XXXXXXXXXXXX        oooooooooooooooooooo",
"oooooooo            XXXXXXXXXXXX            oooooooooooooooooooo",
"oooooooo            XXXXXXXXXXXX            oooooooooooooooooooo",
"oooooooo            XXXXXXXXXXXX            oooooooooooooooooooo",
"oooooooo            XXXXXXXXXXXX            oooooooooooooooooooo",
"oooooooo        XXXXXXXXXXXX                    oooooooooooooooo",
"oooooooo        XXXXXXXXXXXX                    oooooooooooooooo",
"oooooooo        XXXXXXXXXXXX                    oooooooooooooooo",
"oooooooo        XXXXXXXXXXXX                    oooooooooooooooo",
"oooooooo        XXXXXXXX                            oooooooooooo",
"oooooooo        XXXXXXXX                            oooooooooooo",
"oooooooo        XXXXXXXX                            oooooooooooo",
"oooooooo        XXXXXXXX                            oooooooooooo",
"oooooooo        XXXXXXXX....XXXXXXXXXXXXXXXX            oooooooo",
"oooooooo        XXXXXXXX....XXXXXXXXXXXXXXXX            oooooooo",
"oooooooo        XXXXXXXX....XXXXXXXXXXXXXXXX            oooooooo",
"oooooooo        XXXXXXXX....XXXXXXXXXXXXXXXX            oooooooo",
"oooooooo        XXXXXXXX....XXXXXXXXXXXXXXXXXXXX        oooooooo",
"oooooooo        XXXXXXXX....XXXXXXXXXXXXXXXXXXXX        oooooooo",
"oooooooo        XXXXXXXX....XXXXXXXXXXXXXXXXXXXX        oooooooo",
"oooooooo        XXXXXXXX....XXXXXXXXXXXXXXXXXXXX        oooooooo",
"oooooooo        XXXXXXXX                XXXXXXXX        oooooooo",
"oooooooo        XXXXXXXX                XXXXXXXX        oooooooo",
"oooooooo        XXXXXXXX                XXXXXXXX        oooooooo",
"oooooooo        XXXXXXXX                XXXXXXXX        oooooooo",
"oooooooo        XXXXXXXX                XXXXXXXX        oooooooo",
"oooooooo        XXXXXXXX                XXXXXXXX        oooooooo",
"oooooooo        XXXXXXXX                XXXXXXXX        oooooooo",
"oooooooo        XXXXXXXX                XXXXXXXX        oooooooo",
"oooooooo        XXXXXXXXXXXXXXXXXXXXXXXXXXXXXXXX        oooooooo",
"oooooooo        XXXXXXXXXXXXXXXXXXXXXXXXXXXXXXXX        oooooooo",
"oooooooo        XXXXXXXXXXXXXXXXXXXXXXXXXXXXXXXX        oooooooo",
"oooooooo        XXXXXXXXXXXXXXXXXXXXXXXXXXXXXXXX        oooooooo",
"oooooooo            XXXXXXXXXXXXXXXXXXXXXXXX            oooooooo",
"oooooooo            XXXXXXXXXXXXXXXXXXXXXXXX            oooooooo",
"oooooooo            XXXXXXXXXXXXXXXXXXXXXXXX            oooooooo",
"oooooooo            XXXXXXXXXXXXXXXXXXXXXXXX            oooooooo",
"oooooooooooo                                        oooooooooooo",
"oooooooooooo                                        oooooooooooo",
"oooooooooooo                                        oooooooooooo",
"oooooooooooo                                        oooooooooooo",
"oooooooooooooooo                                oooooooooooooooo",
"oooooooooooooooo                                oooooooooooooooo",
"oooooooooooooooo                                oooooooooooooooo",
"oooooooooooooooo                                oooooooooooooooo",
"oooooooooooooooooooooooooooooooooooooooooooooooooooooooooooooooo",
"oooooooooooooooooooooooooooooooooooooooooooooooooooooooooooooooo",
"oooooooooooooooooooooooooooooooooooooooooooooooooooooooooooooooo",
"oooooooooooooooooooooooooooooooooooooooooooooooooooooooooooooooo"
};
