/* XPM */
static char *result[] = {
/* columns rows colors chars-per-pixel */
"64 64 4 1 ",
"  c #434A5F",
". c #CFC6B8",
"X c white",
"o c None",
/* pixels */
"oooooooooooooooooooooooooooooooooooooooooooooooooooooooooooooooo",
"oooooooooooooooooooooooooooooooooooooooooooooooooooooooooooooooo",
"oooooooooooooooooooooooooooooooooooooooooooooooooooooooooooooooo",
"oooooooooooooooooooooooooooooooooooooooooooooooooooooooooooooooo",
"oooooooo                                            oooooooooooo",
"oooooooo                                            oooooooooooo",
"oooooooo                                            oooooooooooo",
"oooooooo                                            oooooooooooo",
"oooooooo                                                oooooooo",
"oooooooo                                                oooooooo",
"oooooooo                                                oooooooo",
"oooooooo                                                oooooooo",
"oooooooo        XXXXXXXXXXXXXXXXXXXX....XXXXXXXX        oooooooo",
"oooooooo        XXXXXXXXXXXXXXXXXXXX....XXXXXXXX        oooooooo",
"oooooooo        XXXXXXXXXXXXXXXXXXXX....XXXXXXXX        oooooooo",
"oooooooo        XXXXXXXXXXXXXXXXXXXX....XXXXXXXX        oooooooo",
"oooooooo        XXXXXXXXXXXXXXXXXXXX....XXXXXXXX        oooooooo",
"oooooooo        XXXXXXXXXXXXXXXXXXXX....XXXXXXXX        oooooooo",
"oooooooo        XXXXXXXXXXXXXXXXXXXX....XXXXXXXX        oooooooo",
"oooooooo        XXXXXXXXXXXXXXXXXXXX....XXXXXXXX        oooooooo",
"oooooooo                                XXXXXXXX        oooooooo",
"oooooooo                                XXXXXXXX        oooooooo",
"oooooooo                                XXXXXXXX        oooooooo",
"oooooooo                                XXXXXXXX        oooooooo",
"oooooooo                                XXXXXXXX        oooooooo",
"oooooooo                                XXXXXXXX        oooooooo",
"oooooooo                                XXXXXXXX        oooooooo",
"oooooooo                                XXXXXXXX        oooooooo",
"oooooooooooooooooooooooo            XXXXXXXXXXXX        oooooooo",
"oooooooooooooooooooooooo            XXXXXXXXXXXX        oooooooo",
"oooooooooooooooooooooooo            XXXXXXXXXXXX        oooooooo",
"oooooooooooooooooooooooo            XXXXXXXXXXXX        oooooooo",
"oooooooooooooooooooo            XXXXXXXXXXXX            oooooooo",
"oooooooooooooooooooo            XXXXXXXXXXXX            oooooooo",
"oooooooooooooooooooo            XXXXXXXXXXXX            oooooooo",
"oooooooooooooooooooo            XXXXXXXXXXXX            oooooooo",
"oooooooooooooooooooo        XXXXXXXXXXXX            oooooooooooo",
"oooooooooooooooooooo        XXXXXXXXXXXX            oooooooooooo",
"oooooooooooooooooooo        XXXXXXXXXXXX            oooooooooooo",
"oooooooooooooooooooo        XXXXXXXXXXXX            oooooooooooo",
"oooooooooooooooooooo        XXXXXXXX            oooooooooooooooo",
"oooooooooooooooooooo        XXXXXXXX            oooooooooooooooo",
"oooooooooooooooooooo        XXXXXXXX            oooooooooooooooo",
"oooooooooooooooooooo        XXXXXXXX            oooooooooooooooo",
"oooooooooooooooooooo        XXXXXXXX        oooooooooooooooooooo",
"oooooooooooooooooooo        XXXXXXXX        oooooooooooooooooooo",
"oooooooooooooooooooo        XXXXXXXX        oooooooooooooooooooo",
"oooooooooooooooooooo        XXXXXXXX        oooooooooooooooooooo",
"oooooooooooooooooooo        XXXXXXXX        oooooooooooooooooooo",
"oooooooooooooooooooo        XXXXXXXX        oooooooooooooooooooo",
"oooooooooooooooooooo        XXXXXXXX        oooooooooooooooooooo",
"oooooooooooooooooooo        XXXXXXXX        oooooooooooooooooooo",
"oooooooooooooooooooo                        oooooooooooooooooooo",
"oooooooooooooooooooo                        oooooooooooooooooooo",
"oooooooooooooooooooo                        oooooooooooooooooooo",
"oooooooooooooooooooo                        oooooooooooooooooooo",
"oooooooooooooooooooo                        oooooooooooooooooooo",
"oooooooooooooooooooo                        oooooooooooooooooooo",
"oooooooooooooooooooo                        oooooooooooooooooooo",
"oooooooooooooooooooo                        oooooooooooooooooooo",
"oooooooooooooooooooooooooooooooooooooooooooooooooooooooooooooooo",
"oooooooooooooooooooooooooooooooooooooooooooooooooooooooooooooooo",
"oooooooooooooooooooooooooooooooooooooooooooooooooooooooooooooooo",
"oooooooooooooooooooooooooooooooooooooooooooooooooooooooooooooooo"
};
