/* XPM */
static char *result[] = {
/* columns rows colors chars-per-pixel */
"64 64 4 1 ",
"  c #434A5F",
". c #CFC6B8",
"X c white",
"o c None",
/* pixels */
"oooooooooooooooooooooooooooooooooooooooooooooooooooooooooooooooo",
"oooooooooooooooooooooooooooooooooooooooooooooooooooooooooooooooo",
"oooooooooooooooooooooooooooooooooooooooooooooooooooooooooooooooo",
"oooooooooooooooooooooooooooooooooooooooooooooooooooooooooooooooo",
"oooooooooooooooo                                oooooooooooooooo",
"oooooooooooooooo                                oooooooooooooooo",
"oooooooooooooooo                                oooooooooooooooo",
"oooooooooooooooo                                oooooooooooooooo",
"oooooooooooo                                        oooooooooooo",
"oooooooooooo                                        oooooooooooo",
"oooooooooooo                                        oooooooooooo",
"oooooooooooo                                        oooooooooooo",
"oooooooo            XXXXXXXXXXXXXXXXXXXXXXXX            oooooooo",
"oooooooo            XXXXXXXXXXXXXXXXXXXXXXXX            oooooooo",
"oooooooo            XXXXXXXXXXXXXXXXXXXXXXXX            oooooooo",
"oooooooo            XXXXXXXXXXXXXXXXXXXXXXXX            oooooooo",
"oooooooo        XXXXXXXXXXXXXXXXXXXXXXXXXXXXXXXX        oooooooo",
"oooooooo        XXXXXXXXXXXXXXXXXXXXXXXXXXXXXXXX        oooooooo",
"oooooooo        XXXXXXXXXXXXXXXXXXXXXXXXXXXXXXXX        oooooooo",
"oooooooo        XXXXXXXXXXXXXXXXXXXXXXXXXXXXXXXX        oooooooo",
"oooooooo        XXXXXXXX                XXXXXXXX        oooooooo",
"oooooooo        XXXXXXXX                XXXXXXXX        oooooooo",
"oooooooo        XXXXXXXX                XXXXXXXX        oooooooo",
"oooooooo        XXXXXXXX                XXXXXXXX        oooooooo",
"oooooooo        XXXXXXXX                XXXXXXXX        oooooooo",
"oooooooo        XXXXXXXX                XXXXXXXX        oooooooo",
"oooooooo        XXXXXXXX                XXXXXXXX        oooooooo",
"oooooooo        XXXXXXXX                XXXXXXXX        oooooooo",
"oooooooo            XXXX....XXXXXXXX....XXXX            oooooooo",
"oooooooo            XXXX....XXXXXXXX....XXXX            oooooooo",
"oooooooo            XXXX....XXXXXXXX....XXXX            oooooooo",
"oooooooo            XXXX....XXXXXXXX....XXXX            oooooooo",
"oooooooo            XXXX....XXXXXXXX....XXXX            oooooooo",
"oooooooo            XXXX....XXXXXXXX....XXXX            oooooooo",
"oooooooo            XXXX....XXXXXXXX....XXXX            oooooooo",
"oooooooo            XXXX....XXXXXXXX....XXXX            oooooooo",
"oooooooo        XXXXXXXX                XXXXXXXX        oooooooo",
"oooooooo        XXXXXXXX                XXXXXXXX        oooooooo",
"oooooooo        XXXXXXXX                XXXXXXXX        oooooooo",
"oooooooo        XXXXXXXX                XXXXXXXX        oooooooo",
"oooooooo        XXXXXXXX                XXXXXXXX        oooooooo",
"oooooooo        XXXXXXXX                XXXXXXXX        oooooooo",
"oooooooo        XXXXXXXX                XXXXXXXX        oooooooo",
"oooooooo        XXXXXXXX                XXXXXXXX        oooooooo",
"oooooooo        XXXXXXXXXXXXXXXXXXXXXXXXXXXXXXXX        oooooooo",
"oooooooo        XXXXXXXXXXXXXXXXXXXXXXXXXXXXXXXX        oooooooo",
"oooooooo        XXXXXXXXXXXXXXXXXXXXXXXXXXXXXXXX        oooooooo",
"oooooooo        XXXXXXXXXXXXXXXXXXXXXXXXXXXXXXXX        oooooooo",
"oooooooo            XXXXXXXXXXXXXXXXXXXXXXXX            oooooooo",
"oooooooo            XXXXXXXXXXXXXXXXXXXXXXXX            oooooooo",
"oooooooo            XXXXXXXXXXXXXXXXXXXXXXXX            oooooooo",
"oooooooo            XXXXXXXXXXXXXXXXXXXXXXXX            oooooooo",
"oooooooooooo                                        oooooooooooo",
"oooooooooooo                                        oooooooooooo",
"oooooooooooo                                        oooooooooooo",
"oooooooooooo                                        oooooooooooo",
"oooooooooooooooo                                oooooooooooooooo",
"oooooooooooooooo                                oooooooooooooooo",
"oooooooooooooooo                                oooooooooooooooo",
"oooooooooooooooo                                oooooooooooooooo",
"oooooooooooooooooooooooooooooooooooooooooooooooooooooooooooooooo",
"oooooooooooooooooooooooooooooooooooooooooooooooooooooooooooooooo",
"oooooooooooooooooooooooooooooooooooooooooooooooooooooooooooooooo",
"oooooooooooooooooooooooooooooooooooooooooooooooooooooooooooooooo"
};
