/* XPM */
static char *result[] = {
/* columns rows colors chars-per-pixel */
"64 64 4 1 ",
"  c #434A5F",
". c #CFC6B8",
"X c white",
"o c None",
/* pixels */
"oooooooooooooooooooooooooooooooooooooooooooooooooooooooooooooooo",
"oooooooooooooooooooooooooooooooooooooooooooooooooooooooooooooooo",
"oooooooooooooooooooooooooooooooooooooooooooooooooooooooooooooooo",
"oooooooooooooooooooooooooooooooooooooooooooooooooooooooooooooooo",
"oooooooooooooooo                                oooooooooooooooo",
"oooooooooooooooo                                oooooooooooooooo",
"oooooooooooooooo                                oooooooooooooooo",
"oooooooooooooooo                                oooooooooooooooo",
"oooooooooooo                                        oooooooooooo",
"oooooooooooo                                        oooooooooooo",
"oooooooooooo                                        oooooooooooo",
"oooooooooooo                                        oooooooooooo",
"oooooooo            XXXXXXXXXXXXXXXXXXXXXXXX            oooooooo",
"oooooooo            XXXXXXXXXXXXXXXXXXXXXXXX            oooooooo",
"oooooooo            XXXXXXXXXXXXXXXXXXXXXXXX            oooooooo",
"oooooooo            XXXXXXXXXXXXXXXXXXXXXXXX            oooooooo",
"oooooooo        XXXXXXXXXXXXXXXXXXXXXXXXXXXXXXXX        oooooooo",
"oooooooo        XXXXXXXXXXXXXXXXXXXXXXXXXXXXXXXX        oooooooo",
"oooooooo        XXXXXXXXXXXXXXXXXXXXXXXXXXXXXXXX        oooooooo",
"oooooooo        XXXXXXXXXXXXXXXXXXXXXXXXXXXXXXXX        oooooooo",
"oooooooo        XXXXXXXX                XXXXXXXX        oooooooo",
"oooooooo        XXXXXXXX                XXXXXXXX        oooooooo",
"oooooooo        XXXXXXXX                XXXXXXXX        oooooooo",
"oooooooo        XXXXXXXX                XXXXXXXX        oooooooo",
"oooooooo        XXXXXXXX                XXXXXXXX        oooooooo",
"oooooooo        XXXXXXXX                XXXXXXXX        oooooooo",
"oooooooo        XXXXXXXX                XXXXXXXX        oooooooo",
"oooooooo        XXXXXXXX                XXXXXXXX        oooooooo",
"oooooooo        XXXXXXXXXXXXXXXXXXXX....XXXXXXXX        oooooooo",
"oooooooo        XXXXXXXXXXXXXXXXXXXX....XXXXXXXX        oooooooo",
"oooooooo        XXXXXXXXXXXXXXXXXXXX....XXXXXXXX        oooooooo",
"oooooooo        XXXXXXXXXXXXXXXXXXXX....XXXXXXXX        oooooooo",
"oooooooo            XXXXXXXXXXXXXXXX....XXXXXXXX        oooooooo",
"oooooooo            XXXXXXXXXXXXXXXX....XXXXXXXX        oooooooo",
"oooooooo            XXXXXXXXXXXXXXXX....XXXXXXXX        oooooooo",
"oooooooo            XXXXXXXXXXXXXXXX....XXXXXXXX        oooooooo",
"oooooooooooo                            XXXXXXXX        oooooooo",
"oooooooooooo                            XXXXXXXX        oooooooo",
"oooooooooooo                            XXXXXXXX        oooooooo",
"oooooooooooo                            XXXXXXXX        oooooooo",
"oooooooooooooooo                    XXXXXXXXXXXX        oooooooo",
"oooooooooooooooo                    XXXXXXXXXXXX        oooooooo",
"oooooooooooooooo                    XXXXXXXXXXXX        oooooooo",
"oooooooooooooooo                    XXXXXXXXXXXX        oooooooo",
"oooooooooooooooooooo            XXXXXXXXXXXX            oooooooo",
"oooooooooooooooooooo            XXXXXXXXXXXX            oooooooo",
"oooooooooooooooooooo            XXXXXXXXXXXX            oooooooo",
"oooooooooooooooooooo            XXXXXXXXXXXX            oooooooo",
"oooooooooooooooooooo        XXXXXXXXXXXX            oooooooooooo",
"oooooooooooooooooooo        XXXXXXXXXXXX            oooooooooooo",
"oooooooooooooooooooo        XXXXXXXXXXXX            oooooooooooo",
"oooooooooooooooooooo        XXXXXXXXXXXX            oooooooooooo",
"oooooooooooooooooooo                            oooooooooooooooo",
"oooooooooooooooooooo                            oooooooooooooooo",
"oooooooooooooooooooo                            oooooooooooooooo",
"oooooooooooooooooooo                            oooooooooooooooo",
"oooooooooooooooooooo                        oooooooooooooooooooo",
"oooooooooooooooooooo                        oooooooooooooooooooo",
"oooooooooooooooooooo                        oooooooooooooooooooo",
"oooooooooooooooooooo                        oooooooooooooooooooo",
"oooooooooooooooooooooooooooooooooooooooooooooooooooooooooooooooo",
"oooooooooooooooooooooooooooooooooooooooooooooooooooooooooooooooo",
"oooooooooooooooooooooooooooooooooooooooooooooooooooooooooooooooo",
"oooooooooooooooooooooooooooooooooooooooooooooooooooooooooooooooo"
};
