/* XPM */
static char *result[] = {
/* columns rows colors chars-per-pixel */
"64 64 10 1 ",
"  c #91625D",
". c #AB7A58",
"X c #B19741",
"o c #C0AA53",
"O c #C59B6C",
"+ c #D5C269",
"@ c #EBE279",
"# c #DDBA8B",
"$ c #F4F4A1",
"% c None",
/* pixels */
"%%%%%%%%%%%%%%%%%%%%%%%%%%%%%%%%%%%%%%%%%%%%%%%%%%%%%%%%%%%%%%%%",
"%%%%%%%%%%%%%%%%%%%%%%%%%%%%%%%%%%%%%%%%%%%%%%%%%%%%%%%%%%%%%%%%",
"%%%%%%%%%%%%%%%%%%%%%%%%%%%%%%%%%%%%%%%%%%%%%%%%%%%%%%%%%%%%%%%%",
"%%%%%%%%%%%%%%%%%%%%%%%%%%%%%%%%%%%%%%%%%%%%%%%%%%%%%%%%%%%%%%%%",
"%%%%%%%%%%%%%%%%%%%%%%%%%%%%%%%%%%%%%%%%%%%%%%%%%%%%%%%%%%%%%%%%",
"%%%%%%%%%%%%%%%%%%%%%%%%%%%%%%%%%%%%%%%%%%%%%%%%%%%%%%%%%%%%%%%%",
"%%%%%%%%%%%%%%%%%%%%%%%%%%%%%%%%%%%%%%%%%%%%%%%%%%%%%%%%%%%%%%%%",
"%%%%%%%%%%%%%%%%%%%%%%%%%%%%%%%%%%%%%%%%%%%%%%%%%%%%%%%%%%%%%%%%",
"%%%%%%%%%%%%%%%%%%%%%%%%%%%%%%%%%%%%%%%%%%%%%%%%%%%%%%%%%%%%%%%%",
"%%%%%%%%%%%%%%%%%%%%%%%%%%%%%%%%%%%%%%%%%%%%%%%%%%%%%%%%%%%%%%%%",
"%%%%%%%%%%%%%%%%%%%%%%%%%%%%%%%%%%%%%%%%%%%%%%%%%%%%%%%%%%%%%%%%",
"%%%%%%%%%%%%%%%%%%%%%%%%%%%%%%%%%%%%%%%%%%%%%%%%%%%%%%%%%%%%%%%%",
"%%%%%%%%%%%%%%%%%%%%%%%%%%%%%%%%%%%%%%%%%%%%%%%%%%%%%%%%%%%%%%%%",
"%%%%%%%%%%%%%%%%%%%%%%%%%%%%%%%%%%%%%%%%%%%%%%%%%%%%%%%%%%%%%%%%",
"%%%%%%%%%%%%%%%%%%%%%%%%%%%%%%%%%%%%%%%%%%%%%%%%%%%%%%%%%%%%%%%%",
"%%%%%%%%%%%%%%%%%%%%%%%%%%%%%%%%%%%%%%%%%%%%%%%%%%%%%%%%%%%%%%%%",
"%%%%%%%%%%%%%%%%      %%%%%%%%%%%%%%%%%%%%%     %%%%%%%%%%%%%%%%",
"%%%%%%%%%%%%%%%%      %%%%%%%%%%%%%%%%%%%%%     %%%%%%%%%%%%%%%%",
"%%%%%%%%%%%%%%%%      %%%%%%%%%%%%%%%%%%%%%     %%%%%%%%%%%%%%%%",
"%%%%%%%%%%%%%%  ++++++                     +++++   %%%%%%%%%%%%%",
"%%%%%%%%%%%%%%  ++++++                     +++++   %%%%%%%%%%%%%",
"%%%%%%%%%%%%%%  ++++++                     +++++   %%%%%%%%%%%%%",
"%%%%%%%%%%%   @@@@@@@@OO################OOO@@@@@@@@   %%%%%%%%%%",
"%%%%%%%%%%%   @@@@@@@@OO################OOO@@@@@@@@   %%%%%%%%%%",
"%%%%%%%%%%%   @@@@@OOOOOOOO###########OOOOOOOO@@@@@   %%%%%%%%%%",
"%%%%%%%%%%%   @@@@@OOOOOOOO###########OOOOOOOO@@@@@   %%%%%%%%%%",
"%%%%%%%%%%%   @@@@@OOOOOOOO###########OOOOOOOO@@@@@   %%%%%%%%%%",
"%%%%%%%%%%%   @@@@@OOOOOOOOOOOOOOOOOOOOOOOOOOO@@@@@   %%%%%%%%%%",
"%%%%%%%%%%%   @@@@@OOOOOOOOOOOOOOOOOOOOOOOOOOO@@@@@   %%%%%%%%%%",
"%%%%%%%%%%%   @@@@@OOOOOOOOOOOOOOOOOOOOOOOOOOO@@@@@   %%%%%%%%%%",
"%%%%%%%%%%%   @@@@@OOOOOOOOOOOOOOOOOOOOOOOOOOO@@@@@   %%%%%%%%%%",
"%%%%%%%%%%%   @@@@@OOOOOOOOOOOOOOOOOOOOOOOOOOO@@@@@   %%%%%%%%%%",
"%%%%%%%%%%%   $$@@@@@@@@@@@@@@@@@@@@@@@@@@@@@@@@$$$   %%%%%%%%%%",
"%%%%%%%%%%%   $$@@@@@@@@@@@@@@@@@@@@@@@@@@@@@@@@$$$   %%%%%%%%%%",
"%%%%%%%%%%%   $$@@@@@@@@@@@@@@@@@@@@@@@@@@@@@@@@$$$   %%%%%%%%%%",
"%%%%%%%%%%%   XX$$$$$$$$$$$$$$$$$$$$$$$$$$$$$$$$XXX   %%%%%%%%%%",
"%%%%%%%%%%%   XX$$$$$$$$$$$$$$$$$$$$$$$$$$$$$$$$XXX   %%%%%%%%%%",
"%%%%%%%%%%%   XX$$$$$$$$$$$$$$$$$$$$$$$$$$$$$$$$XXX   %%%%%%%%%%",
"%%%%%%%%%%%   ooXXX           @@+++           XXooo   %%%%%%%%%%",
"%%%%%%%%%%%   ooXXX           @@+++           XXooo   %%%%%%%%%%",
"%%%%%%%%%%%   ooooo...........+++++...........ooooo   %%%%%%%%%%",
"%%%%%%%%%%%   ooooo...........+++++...........ooooo   %%%%%%%%%%",
"%%%%%%%%%%%   ooooo...........+++++...........ooooo   %%%%%%%%%%",
"%%%%%%%%%%%   ++ooo...........................oo+++   %%%%%%%%%%",
"%%%%%%%%%%%   ++ooo...........................oo+++   %%%%%%%%%%",
"%%%%%%%%%%%   ++ooo...........................oo+++   %%%%%%%%%%",
"%%%%%%%%%%%   +++++...........................+++++   %%%%%%%%%%",
"%%%%%%%%%%%   +++++...........................+++++   %%%%%%%%%%",
"%%%%%%%%%%%%%%  ++++++++++++++++++++++++++++++++   %%%%%%%%%%%%%",
"%%%%%%%%%%%%%%  ++++++++++++++++++++++++++++++++   %%%%%%%%%%%%%",
"%%%%%%%%%%%%%%  ++++++++++++++++++++++++++++++++   %%%%%%%%%%%%%",
"%%%%%%%%%%%%%%%%                                %%%%%%%%%%%%%%%%",
"%%%%%%%%%%%%%%%%                                %%%%%%%%%%%%%%%%",
"%%%%%%%%%%%%%%%%                                %%%%%%%%%%%%%%%%",
"%%%%%%%%%%%%%%%%%%%%%%%%%%%%%%%%%%%%%%%%%%%%%%%%%%%%%%%%%%%%%%%%",
"%%%%%%%%%%%%%%%%%%%%%%%%%%%%%%%%%%%%%%%%%%%%%%%%%%%%%%%%%%%%%%%%",
"%%%%%%%%%%%%%%%%%%%%%%%%%%%%%%%%%%%%%%%%%%%%%%%%%%%%%%%%%%%%%%%%",
"%%%%%%%%%%%%%%%%%%%%%%%%%%%%%%%%%%%%%%%%%%%%%%%%%%%%%%%%%%%%%%%%",
"%%%%%%%%%%%%%%%%%%%%%%%%%%%%%%%%%%%%%%%%%%%%%%%%%%%%%%%%%%%%%%%%",
"%%%%%%%%%%%%%%%%%%%%%%%%%%%%%%%%%%%%%%%%%%%%%%%%%%%%%%%%%%%%%%%%",
"%%%%%%%%%%%%%%%%%%%%%%%%%%%%%%%%%%%%%%%%%%%%%%%%%%%%%%%%%%%%%%%%",
"%%%%%%%%%%%%%%%%%%%%%%%%%%%%%%%%%%%%%%%%%%%%%%%%%%%%%%%%%%%%%%%%",
"%%%%%%%%%%%%%%%%%%%%%%%%%%%%%%%%%%%%%%%%%%%%%%%%%%%%%%%%%%%%%%%%",
"%%%%%%%%%%%%%%%%%%%%%%%%%%%%%%%%%%%%%%%%%%%%%%%%%%%%%%%%%%%%%%%%"
};
