/* XPM */
static char *result[] = {
/* columns rows colors chars-per-pixel */
"64 64 9 1 ",
"  c #6B4A5B",
". c #91625D",
"X c #AB7A58",
"o c #B19741",
"O c #C0AA53",
"+ c #D5C269",
"@ c #EBE279",
"# c #F4F4A1",
"$ c None",
/* pixels */
"$$$$$$$$$$$$$$$$$$$$$$$$$$$$$$$$$$$$$$$$$$$$$$$$$$$$$$$$$$$$$$$$",
"$$$$$$$$$$$$$$$$$$$$$$$$$$$$$$$$$$$$$$$$$$$$$$$$$$$$$$$$$$$$$$$$",
"$$$$$$$$$$$$$$$$$$$$$$$$$$$$$$$$$$$$$$$$$$$$$$$$$$$$$$$$$$$$$$$$",
"$$$$$$$$$$$$$$$$$$$$$$$$$$$$$$$$$$$$$$$$$$$$$$$$$$$$$$$$$$$$$$$$",
"$$$$$$$$$$$$$$$$$$$$$$$$$$$$$$$$$$$$$$$$$$$$$$$$$$$$$$$$$$$$$$$$",
"$$$$$$$$$$$$$$$$$$$$$$$$$$$$$$$$$$$$$$$$$$$$$$$$$$$$$$$$$$$$$$$$",
"$$$$$$$$$$$$$$$$$$$$$$$$$$$$$$$$$$$$$$$$$$$$$$$$$$$$$$$$$$$$$$$$",
"$$$$$$$$$$$$$$$$$$$$$$$$$$$$$$$$$$$$$$$$$$$$$$$$$$$$$$$$$$$$$$$$",
"$$$$$$$$$$$$$$$$$$$$$$$$$$$$$$$$$$$$$$$$$$$$$$$$$$$$$$$$$$$$$$$$",
"$$$$$$$$$$$$$$$$$$$$$$$$$$$$$$$$$$$$$$$$$$$$$$$$$$$$$$$$$$$$$$$$",
"$$$$$$$$$$$$$$$$$$$$$$$$$$$$$$$$$$$$$$$$$$$$$$$$$$$$$$$$$$$$$$$$",
"$$$$$$$$$$$$$$$$$$$$$$$$$$$$$$$$$$$$$$$$$$$$$$$$$$$$$$$$$$$$$$$$",
"$$$$$$$$$$$$$$$$$$$$$$$$$$$$$$$$$$$$$$$$$$$$$$$$$$$$$$$$$$$$$$$$",
"$$$$$$$$$$$$$$$$$$$$$$$$$$$$$$$$$$$$$$$$$$$$$$$$$$$$$$$$$$$$$$$$",
"$$$$$$$$$$$$$$$$......$$$$$$$$$$$$$$$$$$$$$.....$$$$$$$$$$$$$$$$",
"$$$$$$$$$$$$$$$$......$$$$$$$$$$$$$$$$$$$$$.....$$$$$$$$$$$$$$$$",
"$$$$$$$$$$$$$$..++++++.....................+++++...$$$$$$$$$$$$$",
"$$$$$$$$$$$$$$..++++++.....................+++++...$$$$$$$$$$$$$",
"$$$$$$$$$$$$$$..++++++.....................+++++...$$$$$$$$$$$$$",
"$$$$$$$$$$$...##@@@@@@@@@@@@@@@@@@@@@@@@@@@@@@@@@@@...$$$$$$$$$$",
"$$$$$$$$$$$...##@@@@@@@@@@@@@@@@@@@@@@@@@@@@@@@@@@@...$$$$$$$$$$",
"$$$$$$$$$$$...##@@@@@@@@@@@@@@@@@@@@@@@@@@@@@@@@@@@...$$$$$$$$$$",
"$$$$$$$$$$$...oo######@@@@@@@@@@+++@@@@@@@@@@@@@ooo...$$$$$$$$$$",
"$$$$$$$$$$$...oo######@@@@@@@@@@+++@@@@@@@@@@@@@ooo...$$$$$$$$$$",
"$$$$$$$$$$$...oo              +++++             ooo...$$$$$$$$$$",
"$$$$$$$$$$$...oo              +++++             ooo...$$$$$$$$$$",
"$$$$$$$$$$$...oo              +++++             ooo...$$$$$$$$$$",
"$$$$$$$$$$$...oo                                ooo...$$$$$$$$$$",
"$$$$$$$$$$$...oo                                ooo...$$$$$$$$$$",
"$$$$$$$$$$$...oo                                ooo...$$$$$$$$$$",
"$$$$$$$$$$$...oo                                ooo...$$$$$$$$$$",
"$$$$$$$$$$$...oo                                ooo...$$$$$$$$$$",
"$$$$$$$$$$$...ooooo                           ooooo...$$$$$$$$$$",
"$$$$$$$$$$$...ooooo                           ooooo...$$$$$$$$$$",
"$$$$$$$$$$$...ooooo                           ooooo...$$$$$$$$$$",
"$$$$$$$$$$$...OOooooooooooooooooooooooooooooooooOOO...$$$$$$$$$$",
"$$$$$$$$$$$...OOooooooooooooooooooooooooooooooooOOO...$$$$$$$$$$",
"$$$$$$$$$$$...OOooooooooooooooooooooooooooooooooOOO...$$$$$$$$$$",
"$$$$$$$$$$$...++OOO...........................OO+++...$$$$$$$$$$",
"$$$$$$$$$$$...++OOO...........................OO+++...$$$$$$$$$$",
"$$$$$$$$$$$...+++++XXXXXXXXXXXXXXXXXXXXXXXXXXX+++++...$$$$$$$$$$",
"$$$$$$$$$$$...+++++XXXXXXXXXXXXXXXXXXXXXXXXXXX+++++...$$$$$$$$$$",
"$$$$$$$$$$$...+++++XXXXXXXXXXXXXXXXXXXXXXXXXXX+++++...$$$$$$$$$$",
"$$$$$$$$$$$...+++++XXXXXXXXXXXXXXXXXXXXXXXXXXX+++++...$$$$$$$$$$",
"$$$$$$$$$$$...+++++XXXXXXXXXXXXXXXXXXXXXXXXXXX+++++...$$$$$$$$$$",
"$$$$$$$$$$$...+++++XXXXXXXXXXXXXXXXXXXXXXXXXXX+++++...$$$$$$$$$$",
"$$$$$$$$$$$...+++++XXXXXXXXXXXXXXXXXXXXXXXXXXX+++++...$$$$$$$$$$",
"$$$$$$$$$$$...+++++XXXXXXXXXXXXXXXXXXXXXXXXXXX+++++...$$$$$$$$$$",
"$$$$$$$$$$$$$$..++++++++++++++++++++++++++++++++...$$$$$$$$$$$$$",
"$$$$$$$$$$$$$$..++++++++++++++++++++++++++++++++...$$$$$$$$$$$$$",
"$$$$$$$$$$$$$$..++++++++++++++++++++++++++++++++...$$$$$$$$$$$$$",
"$$$$$$$$$$$$$$$$................................$$$$$$$$$$$$$$$$",
"$$$$$$$$$$$$$$$$................................$$$$$$$$$$$$$$$$",
"$$$$$$$$$$$$$$$$................................$$$$$$$$$$$$$$$$",
"$$$$$$$$$$$$$$$$$$$$$$$$$$$$$$$$$$$$$$$$$$$$$$$$$$$$$$$$$$$$$$$$",
"$$$$$$$$$$$$$$$$$$$$$$$$$$$$$$$$$$$$$$$$$$$$$$$$$$$$$$$$$$$$$$$$",
"$$$$$$$$$$$$$$$$$$$$$$$$$$$$$$$$$$$$$$$$$$$$$$$$$$$$$$$$$$$$$$$$",
"$$$$$$$$$$$$$$$$$$$$$$$$$$$$$$$$$$$$$$$$$$$$$$$$$$$$$$$$$$$$$$$$",
"$$$$$$$$$$$$$$$$$$$$$$$$$$$$$$$$$$$$$$$$$$$$$$$$$$$$$$$$$$$$$$$$",
"$$$$$$$$$$$$$$$$$$$$$$$$$$$$$$$$$$$$$$$$$$$$$$$$$$$$$$$$$$$$$$$$",
"$$$$$$$$$$$$$$$$$$$$$$$$$$$$$$$$$$$$$$$$$$$$$$$$$$$$$$$$$$$$$$$$",
"$$$$$$$$$$$$$$$$$$$$$$$$$$$$$$$$$$$$$$$$$$$$$$$$$$$$$$$$$$$$$$$$",
"$$$$$$$$$$$$$$$$$$$$$$$$$$$$$$$$$$$$$$$$$$$$$$$$$$$$$$$$$$$$$$$$",
"$$$$$$$$$$$$$$$$$$$$$$$$$$$$$$$$$$$$$$$$$$$$$$$$$$$$$$$$$$$$$$$$"
};
