/* XPM */
static char *result[] = {
/* columns rows colors chars-per-pixel */
"64 64 8 1 ",
"  c #6B4A5B",
". c #91625D",
"X c #AB7A58",
"o c #B19741",
"O c #C0AA53",
"+ c #D5C269",
"@ c #EBE279",
"# c None",
/* pixels */
"################................................################",
"################................................################",
"################................................################",
"##############..@@@@@@@@@@@@@@@@@@@@@@@@@@@@@@@@...#############",
"##############..@@@@@@@@@@@@@@@@@@@@@@@@@@@@@@@@...#############",
"##############..@@@@@@@@@@@@@@@@@@@@@@@@@@@@@@@@...#############",
"###########...@@++++++++++++++++++++++++++++++++@@@...##########",
"###########...@@++++++++++++++++++++++++++++++++@@@...##########",
"###########...+++++...........................+++++...##########",
"###########...+++++...........................+++++...##########",
"###########...+++++...........................+++++...##########",
"###########...++........XXXXXXXXXXXXXXXX........+++...##########",
"###########...++........XXXXXXXXXXXXXXXX........+++...##########",
"###########...++........XXXXXXXXXXXXXXXX........+++...##########",
"###########...++...........XXXXXXXXXXX..........+++...##########",
"###########...++...........XXXXXXXXXXX..........+++...##########",
"###########...++................................+++...##########",
"###########...++................................+++...##########",
"###########...++................................+++...##########",
"##############..+++...........................++...#############",
"##############..+++...........................++...#############",
"##############..+++...........................++...#############",
"###########...ooooo                           ooooo...##########",
"###########...ooooo                           ooooo...##########",
"###########...oo                                ooo...##########",
"###########...oo                                ooo...##########",
"###########...oo                                ooo...##########",
"###########...oo                                ooo...##########",
"###########...oo                                ooo...##########",
"###########...oo                                ooo...##########",
"###########...oo                                ooo...##########",
"###########...oo                                ooo...##########",
"###########...ooooo                           ooooo...##########",
"###########...ooooo                           ooooo...##########",
"###########...ooooo                           ooooo...##########",
"###########...OOooooooooooooooooooooooooooooooooOOO...##########",
"###########...OOooooooooooooooooooooooooooooooooOOO...##########",
"###########...OOooooooooooooooooooooooooooooooooOOO...##########",
"###########...++OOO...........................OO+++...##########",
"###########...++OOO...........................OO+++...##########",
"###########...+++++XXXXXXXXXXXXXXXXXXXXXXXXXXX+++++...##########",
"###########...+++++XXXXXXXXXXXXXXXXXXXXXXXXXXX+++++...##########",
"###########...+++++XXXXXXXXXXXXXXXXXXXXXXXXXXX+++++...##########",
"###########...+++++XXXXXXXXXXXXXXXXXXXXXXXXXXX+++++...##########",
"###########...+++++XXXXXXXXXXXXXXXXXXXXXXXXXXX+++++...##########",
"###########...+++++XXXXXXXXXXXXXXXXXXXXXXXXXXX+++++...##########",
"###########...+++++XXXXXXXXXXXXXXXXXXXXXXXXXXX+++++...##########",
"###########...+++++XXXXXXXXXXXXXXXXXXXXXXXXXXX+++++...##########",
"##############..++++++++++++++++++++++++++++++++...#############",
"##############..++++++++++++++++++++++++++++++++...#############",
"##############..++++++++++++++++++++++++++++++++...#############",
"################................................################",
"################................................################",
"################................................################",
"################################################################",
"################################################################",
"################################################################",
"################################################################",
"################################################################",
"################################################################",
"################################################################",
"################################################################",
"################################################################",
"################################################################"
};
