/* XPM */
static char *result[] = {
/* columns rows colors chars-per-pixel */
"64 64 6 1 ",
"  c #434A5F",
". c #DE4B1E",
"X c #FC683B",
"o c #959AB1",
"O c #DCE1E7",
"+ c None",
/* pixels */
"++++++++++++++++++++++++++++++++++++++++++++++++++++++++++++++++",
"++++++++++++++++++++++++++++++++++++++++++++++++++++++++++++++++",
"++++++++++++++++++++++++++++++++++++++++++++++++++++++++++++++++",
"++++++++++++++++++++++++++++++++++++++++++++++++++++++++++++++++",
"++++++++++++++++                                ++++++++++++++++",
"++++++++++++++++                                ++++++++++++++++",
"++++++++++++++++                                ++++++++++++++++",
"++++++++++++++++                                ++++++++++++++++",
"++++++++++++                                        ++++++++++++",
"++++++++++++                                        ++++++++++++",
"++++++++++++                                        ++++++++++++",
"++++++++++++                                        ++++++++++++",
"++++++++            oooooooooooooooooooooooo            ++++++++",
"++++++++            oooooooooooooooooooooooo            ++++++++",
"++++++++            oooooooooooooooooooooooo            ++++++++",
"++++++++            oooooooooooooooooooooooo            ++++++++",
"++++++++        XXXXooooooooooooooooooooooooXXXX        ++++++++",
"++++++++        XXXXooooooooooooooooooooooooXXXX        ++++++++",
"++++++++        XXXXooooooooooooooooooooooooXXXX        ++++++++",
"++++++++        XXXXooooooooooooooooooooooooXXXX        ++++++++",
"++++++++        XXXXXXXXXXXXXXXXXXXXXXXXXXXXXXXX        ++++++++",
"++++++++        XXXXXXXXXXXXXXXXXXXXXXXXXXXXXXXX        ++++++++",
"++++++++        XXXXXXXXXXXXXXXXXXXXXXXXXXXXXXXX        ++++++++",
"++++++++        XXXXXXXXXXXXXXXXXXXXXXXXXXXXXXXX        ++++++++",
"++++++++        XXXX....XXXXXXXXXXXXXXXX....XXXX        ++++++++",
"++++++++        XXXX....XXXXXXXXXXXXXXXX....XXXX        ++++++++",
"++++++++        XXXX....XXXXXXXXXXXXXXXX....XXXX        ++++++++",
"++++++++        XXXX....XXXXXXXXXXXXXXXX....XXXX        ++++++++",
"++++++++        XXXXXXXXXXXXXXXXXXXXXXXXXXXXXXXX        ++++++++",
"++++++++        XXXXXXXXXXXXXXXXXXXXXXXXXXXXXXXX        ++++++++",
"++++++++        XXXXXXXXXXXXXXXXXXXXXXXXXXXXXXXX        ++++++++",
"++++++++        XXXXXXXXXXXXXXXXXXXXXXXXXXXXXXXX        ++++++++",
"++++++++        XXXX....XXXXXXXXXXXXXXXX....XXXX        ++++++++",
"++++++++        XXXX....XXXXXXXXXXXXXXXX....XXXX        ++++++++",
"++++++++        XXXX....XXXXXXXXXXXXXXXX....XXXX        ++++++++",
"++++++++        XXXX....XXXXXXXXXXXXXXXX....XXXX        ++++++++",
"++++++++        XXXXXXXXXXXXXXXXXXXXXXXXXXXXXXXX        ++++++++",
"++++++++        XXXXXXXXXXXXXXXXXXXXXXXXXXXXXXXX        ++++++++",
"++++++++        XXXXXXXXXXXXXXXXXXXXXXXXXXXXXXXX        ++++++++",
"++++++++        XXXXXXXXXXXXXXXXXXXXXXXXXXXXXXXX        ++++++++",
"++++++++            OOOOOOOO        OOOOOOOO            ++++++++",
"++++++++            OOOOOOOO        OOOOOOOO            ++++++++",
"++++++++            OOOOOOOO        OOOOOOOO            ++++++++",
"++++++++            OOOOOOOO        OOOOOOOO            ++++++++",
"++++++++++++        oooooooo        oooooooo        ++++++++++++",
"++++++++++++        oooooooo        oooooooo        ++++++++++++",
"++++++++++++        oooooooo        oooooooo        ++++++++++++",
"++++++++++++        oooooooo        oooooooo        ++++++++++++",
"++++++++++++        OOOOOOOO        OOOOOOOO        ++++++++++++",
"++++++++++++        OOOOOOOO        OOOOOOOO        ++++++++++++",
"++++++++++++        OOOOOOOO        OOOOOOOO        ++++++++++++",
"++++++++++++        OOOOOOOO        OOOOOOOO        ++++++++++++",
"++++++++++++                                        ++++++++++++",
"++++++++++++                                        ++++++++++++",
"++++++++++++                                        ++++++++++++",
"++++++++++++                                        ++++++++++++",
"++++++++++++                                        ++++++++++++",
"++++++++++++                                        ++++++++++++",
"++++++++++++                                        ++++++++++++",
"++++++++++++                                        ++++++++++++",
"++++++++++++++++++++++++++++++++++++++++++++++++++++++++++++++++",
"++++++++++++++++++++++++++++++++++++++++++++++++++++++++++++++++",
"++++++++++++++++++++++++++++++++++++++++++++++++++++++++++++++++",
"++++++++++++++++++++++++++++++++++++++++++++++++++++++++++++++++"
};
