/* XPM */
static char *result[] = {
/* columns rows colors chars-per-pixel */
"64 64 4 1 ",
"  c #434A5F",
". c #959AB1",
"X c #DCE1E7",
"o c None",
/* pixels */
"                    oooooooooooooooooooooooo                    ",
"                    oooooooooooooooooooooooo                    ",
"                    oooooooooooooooooooooooo                    ",
"                    oooooooooooooooooooooooo                    ",
"                        oooooooooooooooo                        ",
"                        oooooooooooooooo                        ",
"                        oooooooooooooooo                        ",
"                        oooooooooooooooo                        ",
"        ........                                ........        ",
"        ........                                ........        ",
"        ........                                ........        ",
"        ........                                ........        ",
"        ........XXXX                        XXXX........        ",
"        ........XXXX                        XXXX........        ",
"        ........XXXX                        XXXX........        ",
"        ........XXXX                        XXXX........        ",
"            XXXX................................XXXX            ",
"            XXXX................................XXXX            ",
"            XXXX................................XXXX            ",
"            XXXX................................XXXX            ",
"oooo            ........XXXXXXXXXXXXXXXX........            oooo",
"oooo            ........XXXXXXXXXXXXXXXX........            oooo",
"oooo            ........XXXXXXXXXXXXXXXX........            oooo",
"oooo            ........XXXXXXXXXXXXXXXX........            oooo",
"oooooooo        ....XXXXXXXXXXXXXXXXXXXXXXXX....        oooooooo",
"oooooooo        ....XXXXXXXXXXXXXXXXXXXXXXXX....        oooooooo",
"oooooooo        ....XXXXXXXXXXXXXXXXXXXXXXXX....        oooooooo",
"oooooooo        ....XXXXXXXXXXXXXXXXXXXXXXXX....        oooooooo",
"oooooooo        ....XXXXXXXXXXXXXXXXXXXXXXXX....        oooooooo",
"oooooooo        ....XXXXXXXXXXXXXXXXXXXXXXXX....        oooooooo",
"oooooooo        ....XXXXXXXXXXXXXXXXXXXXXXXX....        oooooooo",
"oooooooo        ....XXXXXXXXXXXXXXXXXXXXXXXX....        oooooooo",
"oooooooo        ....XXXXXXXXXXXXXXXXXXXXXXXX....        oooooooo",
"oooooooo        ....XXXXXXXXXXXXXXXXXXXXXXXX....        oooooooo",
"oooooooo        ....XXXXXXXXXXXXXXXXXXXXXXXX....        oooooooo",
"oooooooo        ....XXXXXXXXXXXXXXXXXXXXXXXX....        oooooooo",
"oooooooo        ....XXXXXXXXXXXXXXXXXXXXXXXX....        oooooooo",
"oooooooo        ....XXXXXXXXXXXXXXXXXXXXXXXX....        oooooooo",
"oooooooo        ....XXXXXXXXXXXXXXXXXXXXXXXX....        oooooooo",
"oooooooo        ....XXXXXXXXXXXXXXXXXXXXXXXX....        oooooooo",
"oooo            ........XXXXXXXXXXXXXXXX........            oooo",
"oooo            ........XXXXXXXXXXXXXXXX........            oooo",
"oooo            ........XXXXXXXXXXXXXXXX........            oooo",
"oooo            ........XXXXXXXXXXXXXXXX........            oooo",
"            XXXX................................XXXX            ",
"            XXXX................................XXXX            ",
"            XXXX................................XXXX            ",
"            XXXX................................XXXX            ",
"        ........XXXX                        XXXX........        ",
"        ........XXXX                        XXXX........        ",
"        ........XXXX                        XXXX........        ",
"        ........XXXX                        XXXX........        ",
"        ........                                ........        ",
"        ........                                ........        ",
"        ........                                ........        ",
"        ........                                ........        ",
"                        oooooooooooooooo                        ",
"                        oooooooooooooooo                        ",
"                        oooooooooooooooo                        ",
"                        oooooooooooooooo                        ",
"                    oooooooooooooooooooooooo                    ",
"                    oooooooooooooooooooooooo                    ",
"                    oooooooooooooooooooooooo                    ",
"                    oooooooooooooooooooooooo                    "
};
