/* XPM */
static char *result[] = {
/* columns rows colors chars-per-pixel */
"32 32 6 1 ",
"  c #434A5F",
". c #DE4B1E",
"X c #FC683B",
"o c #959AB1",
"O c #DCE1E7",
"+ c None",
/* pixels */
"++++++++++++++++++++++++++++++++",
"++++++++++++++++++++++++++++++++",
"++++++++++++++++++++++++++++++++",
"++++++++++++++++++++++++++++++++",
"++++++                ++++++++++",
"++++++                ++++++++++",
"++++                          ++",
"++++                          ++",
"++      XXXXXXXXXXXX          ++",
"++      XXXXXXXXXXXX          ++",
"++    ooooXX..XX..XXooOOOO    ++",
"++    ooooXX..XX..XXooOOOO    ++",
"++    ooooXXXXXXXXXXooOOOO    ++",
"++    ooooXXXXXXXXXXooOOOO    ++",
"++    ooooXXXXXXXXXX          ++",
"++    ooooXXXXXXXXXX          ++",
"++    ooooXXXXXXXXXX          ++",
"++    ooooXXXXXXXXXX          ++",
"++    ooooXXXXXXXXXXooOOOO    ++",
"++    ooooXXXXXXXXXXooOOOO    ++",
"++    ooooXX..XX..XXooOOOO    ++",
"++    ooooXX..XX..XXooOOOO    ++",
"++      XXXXXXXXXXXX          ++",
"++      XXXXXXXXXXXX          ++",
"++++                          ++",
"++++                          ++",
"++++++                ++++++++++",
"++++++                ++++++++++",
"++++++++++++++++++++++++++++++++",
"++++++++++++++++++++++++++++++++",
"++++++++++++++++++++++++++++++++",
"++++++++++++++++++++++++++++++++"
};
