/* XPM */
static char *result[] = {
/* columns rows colors chars-per-pixel */
"32 32 6 1 ",
"  c #434A5F",
". c #DE4B1E",
"X c #FC683B",
"o c #959AB1",
"O c #DCE1E7",
"+ c None",
/* pixels */
"++++++++++++++++++++++++++++++++",
"++++++++++++++++++++++++++++++++",
"++++++++++++++++++++++++++++++++",
"++++++++++++++++++++++++++++++++",
"++++++++++                ++++++",
"++++++++++                ++++++",
"++                          ++++",
"++                          ++++",
"++          XXXXXXXXXXXX      ++",
"++          XXXXXXXXXXXX      ++",
"++    OOOOooXX..XX..XXoooo    ++",
"++    OOOOooXX..XX..XXoooo    ++",
"++    OOOOooXXXXXXXXXXoooo    ++",
"++    OOOOooXXXXXXXXXXoooo    ++",
"++          XXXXXXXXXXoooo    ++",
"++          XXXXXXXXXXoooo    ++",
"++          XXXXXXXXXXoooo    ++",
"++          XXXXXXXXXXoooo    ++",
"++    OOOOooXXXXXXXXXXoooo    ++",
"++    OOOOooXXXXXXXXXXoooo    ++",
"++    OOOOooXX..XX..XXoooo    ++",
"++    OOOOooXX..XX..XXoooo    ++",
"++          XXXXXXXXXXXX      ++",
"++          XXXXXXXXXXXX      ++",
"++                          ++++",
"++                          ++++",
"++++++++++                ++++++",
"++++++++++                ++++++",
"++++++++++++++++++++++++++++++++",
"++++++++++++++++++++++++++++++++",
"++++++++++++++++++++++++++++++++",
"++++++++++++++++++++++++++++++++"
};
