/* XPM */
static char *result[] = {
/* columns rows colors chars-per-pixel */
"32 32 6 1 ",
"  c #434A5F",
". c #DE4B1E",
"X c #FC683B",
"o c #959AB1",
"O c #DCE1E7",
"+ c None",
/* pixels */
"++++++++++++++++++++++++++++++++",
"++++++++++++++++++++++++++++++++",
"++++++++                ++++++++",
"++++++++                ++++++++",
"++++++                    ++++++",
"++++++                    ++++++",
"++++      oooooooooooo      ++++",
"++++      oooooooooooo      ++++",
"++++    XXooooooooooooXX    ++++",
"++++    XXooooooooooooXX    ++++",
"++++    XXXXXXXXXXXXXXXX    ++++",
"++++    XXXXXXXXXXXXXXXX    ++++",
"++++    XX..XXXXXXXX..XX    ++++",
"++++    XX..XXXXXXXX..XX    ++++",
"++++    XXXXXXXXXXXXXXXX    ++++",
"++++    XXXXXXXXXXXXXXXX    ++++",
"++++    XX..XXXXXXXX..XX    ++++",
"++++    XX..XXXXXXXX..XX    ++++",
"++++    XXXXXXXXXXXXXXXX    ++++",
"++++    XXXXXXXXXXXXXXXX    ++++",
"++++      OOOO    OOOO      ++++",
"++++      OOOO    OOOO      ++++",
"++++++    oooo    oooo    ++++++",
"++++++    oooo    oooo    ++++++",
"++++++    OOOO    OOOO    ++++++",
"++++++    OOOO    OOOO    ++++++",
"++++++                    ++++++",
"++++++                    ++++++",
"++++++                    ++++++",
"++++++                    ++++++",
"++++++++++++++++++++++++++++++++",
"++++++++++++++++++++++++++++++++"
};
