/* XPM */
static char *result[] = {
/* columns rows colors chars-per-pixel */
"32 32 4 1 ",
"  c #434A5F",
". c #959AB1",
"X c #DCE1E7",
"o c None",
/* pixels */
"          oooooooooooo          ",
"          oooooooooooo          ",
"            oooooooo            ",
"            oooooooo            ",
"    ....                ....    ",
"    ....                ....    ",
"    ....XX            XX....    ",
"    ....XX            XX....    ",
"      XX................XX      ",
"      XX................XX      ",
"oo      ....XXXXXXXX....      oo",
"oo      ....XXXXXXXX....      oo",
"oooo    ..XXXXXXXXXXXX..    oooo",
"oooo    ..XXXXXXXXXXXX..    oooo",
"oooo    ..XXXXXXXXXXXX..    oooo",
"oooo    ..XXXXXXXXXXXX..    oooo",
"oooo    ..XXXXXXXXXXXX..    oooo",
"oooo    ..XXXXXXXXXXXX..    oooo",
"oooo    ..XXXXXXXXXXXX..    oooo",
"oooo    ..XXXXXXXXXXXX..    oooo",
"oo      ....XXXXXXXX....      oo",
"oo      ....XXXXXXXX....      oo",
"      XX................XX      ",
"      XX................XX      ",
"    ....XX            XX....    ",
"    ....XX            XX....    ",
"    ....                ....    ",
"    ....                ....    ",
"            oooooooo            ",
"            oooooooo            ",
"          oooooooooooo          ",
"          oooooooooooo          "
};
