/* XPM */
static char *result[] = {
/* columns rows colors chars-per-pixel */
"64 64 3 1 ",
"  c #FFBD20",
". c white",
"X c None",
/* pixels */
"XXXXXXXXXXXXXXXXXXXXXXXXXXXXXXXXXXXXXXXXXXXXXXXXXXXXXXXXXXXXXXXX",
"XXXXXXXXXXXXXXXXXXXXXXXXXXXXXXXXXXXXXXXXXXXXXXXXXXXXXXXXXXXXXXXX",
"XXXXXXXXXXXXXXXXXXXXXXXXXXXXXXXXXXXXXXXXXXXXXXXXXXXXXXXXXXXXXXXX",
"XXXXXXXXXXXXXXXXXXXXXXXXXXXXXXXXXXXXXXXXXXXXXXXXXXXXXXXXXXXXXXXX",
"XXXX        XXXXXXXXXXXXXXXXXXXXXXXXXXXXXXXXXXXXXXXX        XXXX",
"XXXX        XXXXXXXXXXXXXXXXXXXXXXXXXXXXXXXXXXXXXXXX        XXXX",
"XXXX        XXXXXXXXXXXXXXXXXXXXXXXXXXXXXXXXXXXXXXXX        XXXX",
"XXXX        XXXXXXXXXXXXXXXXXXXXXXXXXXXXXXXXXXXXXXXX        XXXX",
"XXXX                XXXXXXXX        XXXXXXXX                XXXX",
"XXXX                XXXXXXXX        XXXXXXXX                XXXX",
"XXXX                XXXXXXXX        XXXXXXXX                XXXX",
"XXXX                XXXXXXXX        XXXXXXXX                XXXX",
"XXXXXXXX                                                XXXXXXXX",
"XXXXXXXX                                                XXXXXXXX",
"XXXXXXXX                                                XXXXXXXX",
"XXXXXXXX                                                XXXXXXXX",
"XXXXXXXX                                                XXXXXXXX",
"XXXXXXXX                                                XXXXXXXX",
"XXXXXXXX                                                XXXXXXXX",
"XXXXXXXX                                                XXXXXXXX",
"XXXXXXXXXXXX        ........        ........        XXXXXXXXXXXX",
"XXXXXXXXXXXX        ........        ........        XXXXXXXXXXXX",
"XXXXXXXXXXXX        ........        ........        XXXXXXXXXXXX",
"XXXXXXXXXXXX        ........        ........        XXXXXXXXXXXX",
"XXXXXXXXXXXX        ........................        XXXXXXXXXXXX",
"XXXXXXXXXXXX        ........................        XXXXXXXXXXXX",
"XXXXXXXXXXXX        ........................        XXXXXXXXXXXX",
"XXXXXXXXXXXX        ........................        XXXXXXXXXXXX",
"XXXXXXXX                ................                XXXXXXXX",
"XXXXXXXX                ................                XXXXXXXX",
"XXXXXXXX                ................                XXXXXXXX",
"XXXXXXXX                ................                XXXXXXXX",
"XXXXXXXX                ................                XXXXXXXX",
"XXXXXXXX                ................                XXXXXXXX",
"XXXXXXXX                ................                XXXXXXXX",
"XXXXXXXX                ................                XXXXXXXX",
"XXXXXXXXXXXX        ........................        XXXXXXXXXXXX",
"XXXXXXXXXXXX        ........................        XXXXXXXXXXXX",
"XXXXXXXXXXXX        ........................        XXXXXXXXXXXX",
"XXXXXXXXXXXX        ........................        XXXXXXXXXXXX",
"XXXXXXXXXXXX        ........        ........        XXXXXXXXXXXX",
"XXXXXXXXXXXX        ........        ........        XXXXXXXXXXXX",
"XXXXXXXXXXXX        ........        ........        XXXXXXXXXXXX",
"XXXXXXXXXXXX        ........        ........        XXXXXXXXXXXX",
"XXXXXXXX                                                XXXXXXXX",
"XXXXXXXX                                                XXXXXXXX",
"XXXXXXXX                                                XXXXXXXX",
"XXXXXXXX                                                XXXXXXXX",
"XXXXXXXX                                                XXXXXXXX",
"XXXXXXXX                                                XXXXXXXX",
"XXXXXXXX                                                XXXXXXXX",
"XXXXXXXX                                                XXXXXXXX",
"XXXX                XXXXXXXX        XXXXXXXX                XXXX",
"XXXX                XXXXXXXX        XXXXXXXX                XXXX",
"XXXX                XXXXXXXX        XXXXXXXX                XXXX",
"XXXX                XXXXXXXX        XXXXXXXX                XXXX",
"XXXX        XXXXXXXXXXXXXXXXXXXXXXXXXXXXXXXXXXXXXXXX        XXXX",
"XXXX        XXXXXXXXXXXXXXXXXXXXXXXXXXXXXXXXXXXXXXXX        XXXX",
"XXXX        XXXXXXXXXXXXXXXXXXXXXXXXXXXXXXXXXXXXXXXX        XXXX",
"XXXX        XXXXXXXXXXXXXXXXXXXXXXXXXXXXXXXXXXXXXXXX        XXXX",
"XXXXXXXXXXXXXXXXXXXXXXXXXXXXXXXXXXXXXXXXXXXXXXXXXXXXXXXXXXXXXXXX",
"XXXXXXXXXXXXXXXXXXXXXXXXXXXXXXXXXXXXXXXXXXXXXXXXXXXXXXXXXXXXXXXX",
"XXXXXXXXXXXXXXXXXXXXXXXXXXXXXXXXXXXXXXXXXXXXXXXXXXXXXXXXXXXXXXXX",
"XXXXXXXXXXXXXXXXXXXXXXXXXXXXXXXXXXXXXXXXXXXXXXXXXXXXXXXXXXXXXXXX"
};
