/* XPM */
static char *result[] = {
/* columns rows colors chars-per-pixel */
"96 96 7 1 ",
"  c #434A5F",
". c #E2A106",
"X c #FFBD20",
"o c #959AB1",
"O c #DCE1E7",
"+ c white",
"@ c None",
/* pixels */
"@@@@@@@@@@@@@@@@@@@@@@@@@@@@@@                              @@@@@@@@@@@@@@@@@@@@@@@@@@@@@@@@@@@@",
"@@@@@@@@@@@@@@@@@@@@@@@@@@@@@@                              @@@@@@@@@@@@@@@@@@@@@@@@@@@@@@@@@@@@",
"@@@@@@@@@@@@@@@@@@@@@@@@@@@@@@                              @@@@@@@@@@@@@@@@@@@@@@@@@@@@@@@@@@@@",
"@@@@@@@@@@@@@@@@@@@@@@@@@@@                                    @@@@@@@@@@@@@@@@@@@@@@@@@@@@@@@@@",
"@@@@@@@@@@@@@@@@@@@@@@@@@@@                                    @@@@@@@@@@@@@@@@@@@@@@@@@@@@@@@@@",
"@@@@@@@@@@@@@@@@@@@@@@@@@@@                                    @@@@@@@@@@@@@@@@@@@@@@@@@@@@@@@@@",
"@@@@@@@@@@@@@@@@@@@@@@@@@@@      ...XXXXXXXXXXXXXXXXXX...         @@@@@@@@@@@@@@@@@@@@@@@@@@@@@@",
"@@@@@@@@@@@@@@@@@@@@@@@@@@@      ...XXXXXXXXXXXXXXXXXX...         @@@@@@@@@@@@@@@@@@@@@@@@@@@@@@",
"@@@@@@@@@@@@@@@@@@@@@@@@@@@      ...XXXXXXXXXXXXXXXXXX...         @@@@@@@@@@@@@@@@@@@@@@@@@@@@@@",
"@@@@@@@@@@@@@@@@@@@@@@@@@@@      XXXXXXXXXXXXXXXXXXXXXXXX            @@@@@@@@@@@@@@@@@@@@@@@@@@@",
"@@@@@@@@@@@@@@@@@@@@@@@@@@@      XXXXXXXXXXXXXXXXXXXXXXXX            @@@@@@@@@@@@@@@@@@@@@@@@@@@",
"@@@@@@@@@@@@@@@@@@@@@@@@@@@      XXXXXXXXXXXXXXXXXXXXXXXX            @@@@@@@@@@@@@@@@@@@@@@@@@@@",
"@@@@@@@@@@@@@@@@@@@@@@@@         ......XXXXXXXXXooooooOOOOOOOOO      @@@@@@@@@@@@@@@@@@@@@@@@@@@",
"@@@@@@@@@@@@@@@@@@@@@@@@         ......XXXXXXXXXooooooOOOOOOOOO      @@@@@@@@@@@@@@@@@@@@@@@@@@@",
"@@@@@@@@@@@@@@@@@@@@@@@@         ......XXXXXXXXXooooooOOOOOOOOO      @@@@@@@@@@@@@@@@@@@@@@@@@@@",
"@@@@@@@@@@@@@@@@@@@@@@@@      XXXXXX...XXXXXXXXXooooooOOOOOOOOO      @@@@@@@@@@@@@@@@@@@@@@@@@@@",
"@@@@@@@@@@@@@@@@@@@@@@@@      XXXXXX...XXXXXXXXXooooooOOOOOOOOO      @@@@@@@@@@@@@@@@@@@@@@@@@@@",
"@@@@@@@@@@@@@@@@@@@@@@@@      XXXXXX...XXXXXXXXXooooooOOOOOOOOO      @@@@@@@@@@@@@@@@@@@@@@@@@@@",
"@@@@@@@@@@@@@@@@@@@@@@@@      XXXXXX...XXXXXXXXXXXXXXXXXX            @@@@@@@@@@@@@@@@@@@@@@@@@@@",
"@@@@@@@@@@@@@@@@@@@@@@@@      XXXXXX...XXXXXXXXXXXXXXXXXX            @@@@@@@@@@@@@@@@@@@@@@@@@@@",
"@@@@@@@@@@@@@@@@@@@@@@@@      XXXXXX...XXXXXXXXXXXXXXXXXX            @@@@@@@@@@@@@@@@@@@@@@@@@@@",
"@@@@@@@@@@@@@@@@@@@@@@@@      XXXXXX...XXXXXXXXXooooooOOOOOOOOO      @@@@@@@@@@@@@@@@@@@@@@@@@@@",
"@@@@@@@@@@@@@@@@@@@@@@@@      XXXXXX...XXXXXXXXXooooooOOOOOOOOO      @@@@@@@@@@@@@@@@@@@@@@@@@@@",
"@@@@@@@@@@@@@@@@@@@@@@@@      XXXXXX...XXXXXXXXXooooooOOOOOOOOO      @@@@@@@@@@@@@@@@@@@@@@@@@@@",
"@@@@@@@@@@@@@@@@@@@@@@@@      XXXXXX...XXXXXXXXXooooooOOOOOOOOO      @@@@@@@@@@@@@@@@@@@@@@@@@@@",
"@@@@@@@@@@@@@@@@@@@@@@@@      XXXXXX...XXXXXXXXXooooooOOOOOOOOO      @@@@@@@@@@@@@@@@@@@@@@@@@@@",
"@@@@@@@@@@@@@@@@@@@@@@@@      XXXXXX...XXXXXXXXXooooooOOOOOOOOO      @@@@@@@@@@@@@@@@@@@@@@@@@@@",
"@@@@@@@@@@@@@@@@@@@@@@@@         ......XXXXXXXXXXXXXXXXXX            @@@@@@@@@@@@@@@@@@@@@@@@@@@",
"@@@@@@@@@@@@@@@@@@@@@@@@         ......XXXXXXXXXXXXXXXXXX            @@@@@@@@@@@@@@@@@@@@@@@@@@@",
"@@@@@@@@@@@@@@@@@@@@@@@@         ......XXXXXXXXXXXXXXXXXX            @@@@@@@@@@@@@@@@@@@@@@@@@@@",
"@@@@@@@@@@@@@@@@@@@@@@@@@@@      XXXXXXXXXXXXXXXXXXXXXXXX         @@@@@@@@@@@@@@@@@@@@@@@@@@@@@@",
"@@@@@@@@@@@@@@@@@@@@@@@@@@@      XXXXXXXXXXXXXXXXXXXXXXXX         @@@@@@@@@@@@@@@@@@@@@@@@@@@@@@",
"@@@@@@@@@@@@@@@@@@@@@@@@@@@      XXXXXXXXXXXXXXXXXXXXXXXX         @@@@@@@@@@@@@@@@@@@@@@@@@@@@@@",
"@@@@@@@@@@@@@@@@@@@@@@@@         ........................            @@@@@@@@@@@@@@@@@@@@@@@@@@@",
"@@@@@@@@@@@@@@@@@@@@@@@@         ........................            @@@@@@@@@@@@@@@@@@@@@@@@@@@",
"@@@@@@@@@@@@@@@@@@@@@@@@         ........................            @@@@@@@@@@@@@@@@@@@@@@@@@@@",
"@@@@@@@@@@@@@@@@@@               ........................                     @@@@@@@@@@@@@@@@@@",
"@@@@@@@@@@@@@@@@@@               ........................                     @@@@@@@@@@@@@@@@@@",
"@@@@@@@@@@@@@@@@@@               ........................                     @@@@@@@@@@@@@@@@@@",
"@@@@@@@@@@@@@@@            OOOooooooOOOooooooOOOoooooooooooooooooo               @@@@@@@@@@@@@@@",
"@@@@@@@@@@@@@@@            OOOooooooOOOooooooOOOoooooooooooooooooo               @@@@@@@@@@@@@@@",
"@@@@@@@@@@@@@@@            OOOooooooOOOooooooOOOoooooooooooooooooo               @@@@@@@@@@@@@@@",
"@@@@@@@@@@@@@@@      XXXXXXXXX...oooooooooooooooooo++++++ooo++++++ooooooooo         @@@@@@@@@@@@",
"@@@@@@@@@@@@@@@      XXXXXXXXX...oooooooooooooooooo++++++ooo++++++ooooooooo         @@@@@@@@@@@@",
"@@@@@@@@@@@@@@@      XXXXXXXXX...oooooooooooooooooo++++++ooo++++++ooooooooo         @@@@@@@@@@@@",
"@@@@@@@@@@@@@@@            oooooooooooooooooooooooo++++++ooo++++++++++++oooooo      @@@@@@@@@@@@",
"@@@@@@@@@@@@@@@            oooooooooooooooooooooooo++++++ooo++++++++++++oooooo      @@@@@@@@@@@@",
"@@@@@@@@@@@@@@@            oooooooooooooooooooooooo++++++ooo++++++++++++oooooo      @@@@@@@@@@@@",
"@@@@@@@@@@@@@@@            oooooooooooooooooooooooo++++++ooo++++++++++++oooooo      @@@@@@@@@@@@",
"@@@@@@@@@@@@@@@            oooooooooooooooooooooooo++++++ooo++++++++++++oooooo      @@@@@@@@@@@@",
"@@@@@@@@@@@@@@@            oooooooooooooooooooooooo++++++ooo++++++++++++oooooo      @@@@@@@@@@@@",
"@@@@@@@@@@@@@@@      XXXXXXXXX...oooooooooooooooooo++++++ooo++++++ooooooooo         @@@@@@@@@@@@",
"@@@@@@@@@@@@@@@      XXXXXXXXX...oooooooooooooooooo++++++ooo++++++ooooooooo         @@@@@@@@@@@@",
"@@@@@@@@@@@@@@@      XXXXXXXXX...oooooooooooooooooo++++++ooo++++++ooooooooo         @@@@@@@@@@@@",
"@@@@@@@@@@@@@@@            OOOooooooOOOooooooOOOoooooooooooooooooo               @@@@@@@@@@@@@@@",
"@@@@@@@@@@@@@@@            OOOooooooOOOooooooOOOoooooooooooooooooo               @@@@@@@@@@@@@@@",
"@@@@@@@@@@@@@@@            OOOooooooOOOooooooOOOoooooooooooooooooo               @@@@@@@@@@@@@@@",
"@@@@@@@@@@@@@@@@@@               ........................                     @@@@@@@@@@@@@@@@@@",
"@@@@@@@@@@@@@@@@@@               ........................                     @@@@@@@@@@@@@@@@@@",
"@@@@@@@@@@@@@@@@@@               ........................                     @@@@@@@@@@@@@@@@@@",
"@@@@@@@@@@@@@@@@@@@@@@@@         ........................            @@@@@@@@@@@@@@@@@@@@@@@@@@@",
"@@@@@@@@@@@@@@@@@@@@@@@@         ........................            @@@@@@@@@@@@@@@@@@@@@@@@@@@",
"@@@@@@@@@@@@@@@@@@@@@@@@         ........................            @@@@@@@@@@@@@@@@@@@@@@@@@@@",
"@@@@@@@@@@@@@@@@@@@@@@@@@@@      XXXXXXXXXXXXXXXXXXXXXXXX         @@@@@@@@@@@@@@@@@@@@@@@@@@@@@@",
"@@@@@@@@@@@@@@@@@@@@@@@@@@@      XXXXXXXXXXXXXXXXXXXXXXXX         @@@@@@@@@@@@@@@@@@@@@@@@@@@@@@",
"@@@@@@@@@@@@@@@@@@@@@@@@@@@      XXXXXXXXXXXXXXXXXXXXXXXX         @@@@@@@@@@@@@@@@@@@@@@@@@@@@@@",
"@@@@@@@@@@@@@@@@@@@@@@@@         ......XXXXXXXXXXXXXXXXXX            @@@@@@@@@@@@@@@@@@@@@@@@@@@",
"@@@@@@@@@@@@@@@@@@@@@@@@         ......XXXXXXXXXXXXXXXXXX            @@@@@@@@@@@@@@@@@@@@@@@@@@@",
"@@@@@@@@@@@@@@@@@@@@@@@@         ......XXXXXXXXXXXXXXXXXX            @@@@@@@@@@@@@@@@@@@@@@@@@@@",
"@@@@@@@@@@@@@@@@@@@@@@@@      XXXXXX...XXXXXXXXXooooooOOOOOOOOO      @@@@@@@@@@@@@@@@@@@@@@@@@@@",
"@@@@@@@@@@@@@@@@@@@@@@@@      XXXXXX...XXXXXXXXXooooooOOOOOOOOO      @@@@@@@@@@@@@@@@@@@@@@@@@@@",
"@@@@@@@@@@@@@@@@@@@@@@@@      XXXXXX...XXXXXXXXXooooooOOOOOOOOO      @@@@@@@@@@@@@@@@@@@@@@@@@@@",
"@@@@@@@@@@@@@@@@@@@@@@@@      XXXXXX...XXXXXXXXXooooooOOOOOOOOO      @@@@@@@@@@@@@@@@@@@@@@@@@@@",
"@@@@@@@@@@@@@@@@@@@@@@@@      XXXXXX...XXXXXXXXXooooooOOOOOOOOO      @@@@@@@@@@@@@@@@@@@@@@@@@@@",
"@@@@@@@@@@@@@@@@@@@@@@@@      XXXXXX...XXXXXXXXXooooooOOOOOOOOO      @@@@@@@@@@@@@@@@@@@@@@@@@@@",
"@@@@@@@@@@@@@@@@@@@@@@@@      XXXXXX...XXXXXXXXXXXXXXXXXX            @@@@@@@@@@@@@@@@@@@@@@@@@@@",
"@@@@@@@@@@@@@@@@@@@@@@@@      XXXXXX...XXXXXXXXXXXXXXXXXX            @@@@@@@@@@@@@@@@@@@@@@@@@@@",
"@@@@@@@@@@@@@@@@@@@@@@@@      XXXXXX...XXXXXXXXXXXXXXXXXX            @@@@@@@@@@@@@@@@@@@@@@@@@@@",
"@@@@@@@@@@@@@@@@@@@@@@@@      XXXXXX...XXXXXXXXXooooooOOOOOOOOO      @@@@@@@@@@@@@@@@@@@@@@@@@@@",
"@@@@@@@@@@@@@@@@@@@@@@@@      XXXXXX...XXXXXXXXXooooooOOOOOOOOO      @@@@@@@@@@@@@@@@@@@@@@@@@@@",
"@@@@@@@@@@@@@@@@@@@@@@@@      XXXXXX...XXXXXXXXXooooooOOOOOOOOO      @@@@@@@@@@@@@@@@@@@@@@@@@@@",
"@@@@@@@@@@@@@@@@@@@@@@@@         ......XXXXXXXXXooooooOOOOOOOOO      @@@@@@@@@@@@@@@@@@@@@@@@@@@",
"@@@@@@@@@@@@@@@@@@@@@@@@         ......XXXXXXXXXooooooOOOOOOOOO      @@@@@@@@@@@@@@@@@@@@@@@@@@@",
"@@@@@@@@@@@@@@@@@@@@@@@@         ......XXXXXXXXXooooooOOOOOOOOO      @@@@@@@@@@@@@@@@@@@@@@@@@@@",
"@@@@@@@@@@@@@@@@@@@@@@@@@@@      XXXXXXXXXXXXXXXXXXXXXXXX            @@@@@@@@@@@@@@@@@@@@@@@@@@@",
"@@@@@@@@@@@@@@@@@@@@@@@@@@@      XXXXXXXXXXXXXXXXXXXXXXXX            @@@@@@@@@@@@@@@@@@@@@@@@@@@",
"@@@@@@@@@@@@@@@@@@@@@@@@@@@      XXXXXXXXXXXXXXXXXXXXXXXX            @@@@@@@@@@@@@@@@@@@@@@@@@@@",
"@@@@@@@@@@@@@@@@@@@@@@@@@@@      ...XXXXXXXXXXXXXXXXXX...         @@@@@@@@@@@@@@@@@@@@@@@@@@@@@@",
"@@@@@@@@@@@@@@@@@@@@@@@@@@@      ...XXXXXXXXXXXXXXXXXX...         @@@@@@@@@@@@@@@@@@@@@@@@@@@@@@",
"@@@@@@@@@@@@@@@@@@@@@@@@@@@      ...XXXXXXXXXXXXXXXXXX...         @@@@@@@@@@@@@@@@@@@@@@@@@@@@@@",
"@@@@@@@@@@@@@@@@@@@@@@@@@@@                                    @@@@@@@@@@@@@@@@@@@@@@@@@@@@@@@@@",
"@@@@@@@@@@@@@@@@@@@@@@@@@@@                                    @@@@@@@@@@@@@@@@@@@@@@@@@@@@@@@@@",
"@@@@@@@@@@@@@@@@@@@@@@@@@@@                                    @@@@@@@@@@@@@@@@@@@@@@@@@@@@@@@@@",
"@@@@@@@@@@@@@@@@@@@@@@@@@@@@@@                              @@@@@@@@@@@@@@@@@@@@@@@@@@@@@@@@@@@@",
"@@@@@@@@@@@@@@@@@@@@@@@@@@@@@@                              @@@@@@@@@@@@@@@@@@@@@@@@@@@@@@@@@@@@",
"@@@@@@@@@@@@@@@@@@@@@@@@@@@@@@                              @@@@@@@@@@@@@@@@@@@@@@@@@@@@@@@@@@@@"
};
