/* XPM */
static char *result[] = {
/* columns rows colors chars-per-pixel */
"32 32 7 1 ",
"  c #434A5F",
". c #E2A106",
"X c #FFBD20",
"o c #959AB1",
"O c #DCE1E7",
"+ c white",
"@ c None",
/* pixels */
"@@@@@@@@@@          @@@@@@@@@@@@",
"@@@@@@@@@            @@@@@@@@@@@",
"@@@@@@@@@  .XXXXXX.   @@@@@@@@@@",
"@@@@@@@@@  XXXXXXXX    @@@@@@@@@",
"@@@@@@@@   ..XXXooOOO  @@@@@@@@@",
"@@@@@@@@  XX.XXXooOOO  @@@@@@@@@",
"@@@@@@@@  XX.XXXXXX    @@@@@@@@@",
"@@@@@@@@  XX.XXXooOOO  @@@@@@@@@",
"@@@@@@@@  XX.XXXooOOO  @@@@@@@@@",
"@@@@@@@@   ..XXXXXX    @@@@@@@@@",
"@@@@@@@@@  XXXXXXXX   @@@@@@@@@@",
"@@@@@@@@   ........    @@@@@@@@@",
"@@@@@@     ........       @@@@@@",
"@@@@@    OooOooOoooooo     @@@@@",
"@@@@@  XXX.oooooo++o++ooo   @@@@",
"@@@@@    oooooooo++o++++oo  @@@@",
"@@@@@    oooooooo++o++++oo  @@@@",
"@@@@@  XXX.oooooo++o++ooo   @@@@",
"@@@@@    OooOooOoooooo     @@@@@",
"@@@@@@     ........       @@@@@@",
"@@@@@@@@   ........    @@@@@@@@@",
"@@@@@@@@@  XXXXXXXX   @@@@@@@@@@",
"@@@@@@@@   ..XXXXXX    @@@@@@@@@",
"@@@@@@@@  XX.XXXooOOO  @@@@@@@@@",
"@@@@@@@@  XX.XXXooOOO  @@@@@@@@@",
"@@@@@@@@  XX.XXXXXX    @@@@@@@@@",
"@@@@@@@@  XX.XXXooOOO  @@@@@@@@@",
"@@@@@@@@   ..XXXooOOO  @@@@@@@@@",
"@@@@@@@@@  XXXXXXXX    @@@@@@@@@",
"@@@@@@@@@  .XXXXXX.   @@@@@@@@@@",
"@@@@@@@@@            @@@@@@@@@@@",
"@@@@@@@@@@          @@@@@@@@@@@@"
};
