/* XPM */
static char *result[] = {
/* columns rows colors chars-per-pixel */
"32 32 7 1 ",
"  c #434A5F",
". c #E2A106",
"X c #FFBD20",
"o c #959AB1",
"O c #DCE1E7",
"+ c white",
"@ c None",
/* pixels */
"@@@@@@@@@@@@@@@@@@@@@@@@@@@@@@@@",
"@@@@@@@@@@@@@@@@@@@@@@@@@@@@@@@@",
"@@@@@@@@@@@@@@@@@@@@@@@@@@@@@@@@",
"@@@@@@@@@@@@@@@@@@@@@@@@@@@@@@@@",
"@@@@@@@@@@@@@@@@@@@@@@@@@@@@@@@@",
"@@@@@@@@@@@@@      @@@@@@@@@@@@@",
"@@@@@@@@@@@@        @@@@@@@@@@@@",
"@@@@@@@@@@@@  X  X  @@@@@@@@@@@@",
"@@@@      @   X  X   @      @@@@",
"@            OXooXO            @",
"     XXXX    o.oo.o    XXXX     ",
"  .X.XXXX.X..oooooo..X.XXXX.X.  ",
"  XX......X..OooooO..X......XX  ",
"  XXXXXXXXX..oooooo..XXXXXXXXX  ",
"  XXXXXXXXX..oooooo..XXXXXXXXX  ",
"  XXXXXXXXX..OooooO..XXXXXXXXX  ",
"  XXooXooXX..oooooo..XXooXooXX  ",
"  XXooXooXX..o++++o..XXooXooXX  ",
"  .XOOXOOXX..o++++o..XXOOXOOX.  ",
"    OO OO    oooooo    OO OO    ",
"@   OO OO    o++++o    OO OO   @",
"@@           o++++o           @@",
"@@@       @   o++o   @       @@@",
"@@@@@@@@@@@@  o++o  @@@@@@@@@@@@",
"@@@@@@@@@@@@  oooo  @@@@@@@@@@@@",
"@@@@@@@@@@@@   oo   @@@@@@@@@@@@",
"@@@@@@@@@@@@@      @@@@@@@@@@@@@",
"@@@@@@@@@@@@@@    @@@@@@@@@@@@@@",
"@@@@@@@@@@@@@@@@@@@@@@@@@@@@@@@@",
"@@@@@@@@@@@@@@@@@@@@@@@@@@@@@@@@",
"@@@@@@@@@@@@@@@@@@@@@@@@@@@@@@@@",
"@@@@@@@@@@@@@@@@@@@@@@@@@@@@@@@@"
};
