/* XPM */
static char *result[] = {
/* columns rows colors chars-per-pixel */
"32 32 7 1 ",
"  c #434A5F",
". c #E2A106",
"X c #FFBD20",
"o c #959AB1",
"O c #DCE1E7",
"+ c white",
"@ c None",
/* pixels */
"@@@@@@@@@@@@          @@@@@@@@@@",
"@@@@@@@@@@@            @@@@@@@@@",
"@@@@@@@@@@   .XXXXXX.  @@@@@@@@@",
"@@@@@@@@@    XXXXXXXX  @@@@@@@@@",
"@@@@@@@@@  OOOooXXX..   @@@@@@@@",
"@@@@@@@@@  OOOooXXX.XX  @@@@@@@@",
"@@@@@@@@@    XXXXXX.XX  @@+@@@@@",
"@@@@@@@@@  OOOooXXX.XX  @@+@@@@@",
"@@@@@@@@@  OOOooXXX.XX  @@@@@@@@",
"@@@@@@@@@    XXXXXX..   @@@@@@@@",
"@@@@@@@@@@   XXXXXXXX  @@@@@@@@@",
"@@@@@@@@@    ........   @@@@@@@@",
"@@@@@@       ........     @@@@@@",
"@@@@@     ooooooOooOooO    @@@@@",
"@@@@   ooo++o++oooooo.XXX  @@@@@",
"@@@@  oo++++o++oooooooo    @@@@@",
"@@@@  oo++++o++oooooooo    @@@@@",
"@@@@   ooo++o++oooooo.XXX  @@@@@",
"@@@@@     ooooooOooOooO    @@@@@",
"@@@@@@       ........     @@@@@@",
"@@@@@@@@@    ........   @@@@@@@@",
"@@@@@@@@@@   XXXXXXXX  @@@@@@@@@",
"@@@@@@@@@    XXXXXX..   @@@@@@@@",
"@@@@@@@@@  OOOooXXX.XX  @@@@@@@@",
"@@@@@@@@@  OOOooXXX.XX  @@+@@@@@",
"@@@@@@@@@    XXXXXX.XX  @@+@@@@@",
"@@@@@@@@@  OOOooXXX.XX  @@@@@@@@",
"@@@@@@@@@  OOOooXXX..   @@@@@@@@",
"@@@@@@@@@    XXXXXXXX  @@@@@@@@@",
"@@@@@@@@@@   .XXXXXX.  @@@@@@@@@",
"@@@@@@@@@@@            @@@@@@@@@",
"@@@@@@@@@@@@          @@@@@@@@@@"
};
