/* XPM */
static char *result[] = {
/* columns rows colors chars-per-pixel */
"32 32 7 1 ",
"  c #345551",
". c #FC683B",
"X c #A6C42E",
"o c #B6D53C",
"O c #FF805B",
"+ c #959AB1",
"@ c #DCE1E7",
/* pixels */
"oo              oooooooooooooooo",
"oo              oooooooooooooooo",
"oo      OOOOOO                oo",
"oo      OOOOOO                oo",
"oo    @@OOOOOO                oo",
"oo    @@OOOOOO                oo",
"oo    @@OOOOOO............    oo",
"oo    @@OOOOOO............    oo",
"oo    ++OOOOOO............    oo",
"oo    ++OOOOOO............    oo",
"oo    ++OOOOOO............    oo",
"oo    ++OOOOOO............    oo",
"oo    ++OOOOOO............    oo",
"oo    ++OOOOOO............    oo",
"oo    ++      ............    oo",
"oo    ++      ............    oo",
"oo    ++                      oo",
"oo    ++                      oo",
"oo    ++    XX                oo",
"oo    ++    XX                oo",
"oo    ++    oooooooooooooooooooo",
"oo    ++    oooooooooooooooooooo",
"oo    ++    oooooooooooooooooooo",
"oo    ++    oooooooooooooooooooo",
"oo    ++    oooooooooooooooooooo",
"oo    ++    oooooooooooooooooooo",
"oo    ++    oooooooooooooooooooo",
"oo    ++    oooooooooooooooooooo",
"oo    ++    XXooXXooXXooXXooXXoo",
"oo    ++    XXooXXooXXooXXooXXoo",
"oo    ++    ooXXooXXooXXooXXoooo",
"oo    ++    ooXXooXXooXXooXXoooo"
};
