/* XPM */
static char *result[] = {
/* columns rows colors chars-per-pixel */
"32 32 3 1 ",
"  c #A6C42E",
". c #B6D53C",
"X c #C9E750",
/* pixels */
"................................",
"................................",
"................................",
"................................",
"..............XX....    ........",
"..............XX....    ........",
"....................    ........",
"....................    ........",
"..........................XX....",
"..........................XX....",
"................................",
"................................",
"......................XX........",
"......................XX........",
"................................",
"................................",
"................................",
"................................",
"................................",
"................................",
"................................",
"................................",
"......    ......................",
"......    ......................",
"......    ......................",
"......    ......................",
"................................",
"................................",
"............  ..................",
"............  ..................",
"................................",
"................................"
};
