/* XPM */
static char *result[] = {
/* columns rows colors chars-per-pixel */
"32 32 6 1 ",
"  c #345551",
". c #DE4B1E",
"X c #FC683B",
"o c #B6D53C",
"O c #CB815E",
"+ c #F4AC66",
/* pixels */
"oooooooooooooooooooooooooooooooo",
"oooooooooooooooooooooooooooooooo",
"oooooooooo            oooooooooo",
"oooooooooo            oooooooooo",
"oooooo                    oooooo",
"oooooo                    oooooo",
"oo          ....XXXX          oo",
"oo          ....XXXX          oo",
"        ........XXXXXXXX        ",
"        ........XXXXXXXX        ",
"    ............XXXXXXXXXXXX    ",
"    ............XXXXXXXXXXXX    ",
"    ............XXXXXXXXXXXX    ",
"    ............XXXXXXXXXXXX    ",
"    ............XXXXXXXXXXXX    ",
"    ............XXXXXXXXXXXX    ",
"    ............XXXXXXXXXXXX    ",
"    ............XXXXXXXXXXXX    ",
"    ........XXXXXXXXXXXXXXXX    ",
"    ........XXXXXXXXXXXXXXXX    ",
"    ....XXXXOOOOOOOOXXXXXXXX    ",
"    ....XXXXOOOOOOOOXXXXXXXX    ",
"    XXXXOOOO++++++++OOOOXXXX    ",
"    XXXXOOOO++++++++OOOOXXXX    ",
"      OO++++++++++++++++OO      ",
"      OO++++++++++++++++OO      ",
"oo    ++++++++OOOO++++++++    oo",
"oo    ++++++++OOOO++++++++    oo",
"oo    ++++++++OOOO++++++++    oo",
"oo    ++++++++OOOO++++++++    oo",
"oooooooooooooooooooooooooooooooo",
"oooooooooooooooooooooooooooooooo"
};
