/* XPM */
static char *result[] = {
/* columns rows colors chars-per-pixel */
"32 32 5 1 ",
"  c #434A5F",
". c #E2A106",
"X c #FFBD20",
"o c white",
"O c None",
/* pixels */
"OOOOOOOOOOOOOOOOOOOOOOOOOOOOOOOO",
"OOOOOOOOOOOOOOOOOOOOOOOOOOOOOOOO",
"OOOOOOOOOOOOOOOOOOOOOOOOOOOOOOOO",
"OOOOOOOOOOOOOOOOOOOOOOOOOOOOOOOO",
"OOOOOO                      OOOO",
"OOOOOO                      OOOO",
"OOOO                        OOOO",
"OOOO                        OOOO",
"OOOO    XXXXooooXX  XXXX    OOOO",
"OOOO    XXXXooooXX  XXXX    OOOO",
"OOOO    XXXXooooXX..XXXX    OOOO",
"OOOO    XXXXooooXX..XXXX    OOOO",
"OOOO    XXXXooooXX  XXXX    OOOO",
"OOOO    XXXXooooXX  XXXX    OOOO",
"OOOO                        OOOO",
"OOOO                        OOOO",
"OOOO                        OOOO",
"OOOO                        OOOO",
"OOOO    XXXXooooXX  XXXX    OOOO",
"OOOO    XXXXooooXX  XXXX    OOOO",
"OOOO    XXXXooooXX..XXXX    OOOO",
"OOOO    XXXXooooXX..XXXX    OOOO",
"OOOO    XXXXooooXX  XXXX    OOOO",
"OOOO    XXXXooooXX  XXXX    OOOO",
"OOOO                        OOOO",
"OOOO                        OOOO",
"OOOOOO                      OOOO",
"OOOOOO                      OOOO",
"OOOOOOOOOOOOOOOOOOOOOOOOOOOOOOOO",
"OOOOOOOOOOOOOOOOOOOOOOOOOOOOOOOO",
"OOOOOOOOOOOOOOOOOOOOOOOOOOOOOOOO",
"OOOOOOOOOOOOOOOOOOOOOOOOOOOOOOOO"
};
