/* XPM */
static char *result[] = {
/* columns rows colors chars-per-pixel */
"32 32 3 1 ",
"  c #FFBD20",
". c white",
"X c None",
/* pixels */
"XXXXXXXXXXXXXXXXXXXXXXXXXXXXXXXX",
"XXXXXXXXXXXXXXXXXXXXXXXXXXXXXXXX",
"XXXXXX      XXXXXXXX      XXXXXX",
"XXXXXX      XXXXXXXX      XXXXXX",
"XXXX          XXXX          XXXX",
"XXXX          XXXX          XXXX",
"XXXX          XXXX          XXXX",
"XXXX          XXXX          XXXX",
"XXXX          XXXX          XXXX",
"XXXX          XXXX          XXXX",
"XXXX          XXXX          XXXX",
"XXXX          XXXX          XXXX",
"XXXX    ..    XXXX    ..    XXXX",
"XXXX    ..    XXXX    ..    XXXX",
"XXXX    ..    XXXX    ..    XXXX",
"XXXX    ..    XXXX    ..    XXXX",
"XXXX    ..    XXXX    ..    XXXX",
"XXXX    ..    XXXX    ..    XXXX",
"XXXX    ..    XXXX    ..    XXXX",
"XXXX    ..    XXXX    ..    XXXX",
"XXXX    ..    XXXX    ..    XXXX",
"XXXX    ..    XXXX    ..    XXXX",
"XXXX    ..    XXXX    ..    XXXX",
"XXXX    ..    XXXX    ..    XXXX",
"XXXX    ..    XXXX    ..    XXXX",
"XXXX    ..    XXXX    ..    XXXX",
"XXXX          XXXX          XXXX",
"XXXX          XXXX          XXXX",
"XXXXXX      XXXXXXXX      XXXXXX",
"XXXXXX      XXXXXXXX      XXXXXX",
"XXXXXXXXXXXXXXXXXXXXXXXXXXXXXXXX",
"XXXXXXXXXXXXXXXXXXXXXXXXXXXXXXXX"
};
