/* XPM */
static char *result[] = {
/* columns rows colors chars-per-pixel */
"32 32 5 1 ",
"  c #434A5F",
". c #E2A106",
"X c #FFBD20",
"o c white",
"O c None",
/* pixels */
"OOOOOOOOOOOOOOOOOOOOOOOOOOOOOOOO",
"OOOOOOOOOOOOOOOOOOOOOOOOOOOOOOOO",
"OOOOOOOOOOOOOOOOOOOOOOOOOOOOOOOO",
"OOOOOOOOOOOOOOOOOOOOOOOOOOOOOOOO",
"OOOO                        OOOO",
"OOOO                        OOOO",
"OOOO                        OOOO",
"OOOO                        OOOO",
"OOOO    XXXXXX    XXXXXX    OOOO",
"OOOO    XXXXXX    XXXXXX    OOOO",
"OOOO    XXXXXX    XXXXXX    OOOO",
"OOOO    XXXXXX    XXXXXX    OOOO",
"OOOO      ..        ..      OOOO",
"OOOO      ..        ..      OOOO",
"OOOO    XXXXXX    XXXXXX    OOOO",
"OOOO    XXXXXX    XXXXXX    OOOO",
"OOOO    oooooo    oooooo    OOOO",
"OOOO    oooooo    oooooo    OOOO",
"OOOO    oooooo    oooooo    OOOO",
"OOOO    oooooo    oooooo    OOOO",
"OOOO    XXXXXX    XXXXXX    OOOO",
"OOOO    XXXXXX    XXXXXX    OOOO",
"OOOO    XXXXXX    XXXXXX    OOOO",
"OOOO    XXXXXX    XXXXXX    OOOO",
"OOOO                        OOOO",
"OOOO                        OOOO",
"OOOOOO                    OOOOOO",
"OOOOOO                    OOOOOO",
"OOOOOOOOOOOOOOOOOOOOOOOOOOOOOOOO",
"OOOOOOOOOOOOOOOOOOOOOOOOOOOOOOOO",
"OOOOOOOOOOOOOOOOOOOOOOOOOOOOOOOO",
"OOOOOOOOOOOOOOOOOOOOOOOOOOOOOOOO"
};
