/* XPM */
static char *result[] = {
/* columns rows colors chars-per-pixel */
"32 32 4 1 ",
"  c #345551",
". c #92B115",
"X c #B6D53C",
"o c #CB815E",
/* pixels */
"XXXXXX        XXXXXXXXXXXXXXXXXX",
"XXXXXX        XXXXXXXXXXXXXXXXXX",
"XXXX            XXXXXXXXXXXXXXXX",
"XXXX            XXXXXXXXXXXXXXXX",
"XX      XXXX      XXXXXXXXXXXXXX",
"XX      XXXX      XXXXXXXXXXXXXX",
"XX    ..XXXX..    XXXXXXXXXXXXXX",
"XX    ..XXXX..    XXXXXXXXXXXXXX",
"XX    ........    XXXXXXXXXXXXXX",
"XX    ........    XXXXXXXXXXXXXX",
"      ........            XXXXXX",
"      ........            XXXXXX",
"    XXXX....XXXX            XXXX",
"    XXXX....XXXX            XXXX",
"    XXXX....XX      XXXX      XX",
"    XXXX....XX      XXXX      XX",
"    ..........    ..XXXX..    XX",
"    ..........    ..XXXX..    XX",
"    ........      ........      ",
"    ........      ........      ",
"      ......    XXXX....XXXX    ",
"      ......    XXXX....XXXX    ",
"XX      oooo    XXXX....XXXX    ",
"XX      oooo    XXXX....XXXX    ",
"XXXX    oooo    ............    ",
"XXXX    oooo    ............    ",
"XXXXXXXXXXXX      ........    XX",
"XXXXXXXXXXXX      ........    XX",
"XXXXXXXXXXXXXX      oooo      XX",
"XXXXXXXXXXXXXX      oooo      XX",
"XXXXXXXXXXXXXXXX    oooo    XXXX",
"XXXXXXXXXXXXXXXX    oooo    XXXX"
};
