/* XPM */
static char *ac1c632a4cbe43f4bebc4e80d7a2bb50wbYJS2FrbAs76jZi[] = {
/* columns rows colors chars-per-pixel */
"48 48 5 1 ",
"  c None",
". c #AA7959",
"X c #B78A62",
"o c #C49A6C",
"O c #E8CFA6",
/* pixels */
"                                                ",
"      XXXX            XXXX            XXXX      ",
"     XOOOOX          XOOOOX          XOOOOX     ",
"     XOOOOX          XOOOOX          XOOOOX     ",
"     .oOOo.XooooooooX.oOOo.XooooooooX.oOOo.     ",
"     .oooo............oooo............oooo.     ",
"     .oooo.          .oooo.          .oooo.     ",
"     .o..o.XooooooooX.o..o.XooooooooX.o..o.     ",
"     .o..o............o..o............o..o.     ",
"     .X..X............X..X............X..X.     ",
"     .X..X.          .X..X.          .X..X.     ",
"      X..X            X..X            X..X      ",
"       ..              ..              ..       ",
"       ..              ..              ..       ",
"       ..              ..              ..       ",
"       ..              ..              ..       ",
"       ..              ..              ..       ",
"      XXXX            XXXX            XXXX      ",
"     XOOOOX          XOOOOX          XOOOOX     ",
"     XOOOOX          XOOOOX          XOOOOX     ",
"     .oOOo.XooooooooX.oOOo.XooooooooX.oOOo.     ",
"     .oooo............oooo............oooo.     ",
"     .oooo.          .oooo.          .oooo.     ",
"     .o..o.XooooooooX.o..o.XooooooooX.o..o.     ",
"     .o..o............o..o............o..o.     ",
"     .X..X............X..X............X..X.     ",
"     .X..X.          .X..X.          .X..X.     ",
"      X..X            X..X            X..X      ",
"       ..              ..              ..       ",
"       ..              ..              ..       ",
"       ..              ..              ..       ",
"       ..              ..              ..       ",
"       ..              ..              ..       ",
"      XXXX            XXXX            XXXX      ",
"     XOOOOX          XOOOOX          XOOOOX     ",
"     XOOOOX          XOOOOX          XOOOOX     ",
"     .oOOo.XooooooooX.oOOo.XooooooooX.oOOo.     ",
"     .oooo............oooo............oooo.     ",
"     .oooo.          .oooo.          .oooo.     ",
"     .oooo.XooooooooX.oooo.XooooooooX.oooo.     ",
"     .oooo............oooo............oooo.     ",
"     .XooX............XooX............XooX.     ",
"     .XXXX.          .XXXX.          .XXXX.     ",
"      XXXX            XXXX            XXXX      ",
"                                                ",
"                                                ",
"                                                ",
"                                                "
};
