/* XPM */
static char *_a0a4dc3ac494b04d03c759294751a49sNbGYD8wNpBjiROY[] = {
/* columns rows colors chars-per-pixel */
"48 48 4 1 ",
"  c None",
". c #78A158",
"X c #A4C263",
"o c #C0D470",
/* pixels */
"                                                ",
"                                                ",
"        ................................        ",
"     ......XXXXXXXX...XXXXX..XXXXXXXX......     ",
"    ..XXXXXXXXXXXXXXXXXXXXXXXXXXXXXXXXXXX...    ",
"   ..XXXXXXXXXXXoXXXXXXXoXXXXXooooXXXXXXXXX..   ",
"   .XXXXXXoXooooooooXooXooXoooooooXoXXXXXXX..   ",
"   ..XXXXooooXooooXooooooooooXooooooooXoXXX..   ",
"  ...XXXoooooooooooooooooXoooooooooooooooXXX..  ",
"  ..XXXoooooooooooooooooooooooooooooooooooXX..  ",
"  ..XXXXooooooooooooooooooooooooooXoooooooXXX.  ",
"  .XXXoooooooooooooooooooooooooooooooooXooXXX.  ",
"  .XXXoooooooXoooooooooooooooooooooooooooooX..  ",
"  .XXXoXooooooooooooooooooooooooooooooooooXX..  ",
"  .XXooooooooooooooooooooooooooooooooooooooXX.  ",
"  .XXooooooooooooooooooooooooooooooooooooooXX.  ",
"  .XXXoooooooooooooooooooooooooooooooooooooXX.  ",
"  .XXooXoooooooooooooooooooooooooooooooooooXX.  ",
"  .XXooooooooooooooooooooooooooooooooXooooXXX.  ",
"  ..XXoooooXoooooooooooooooooooooooooooooXXX..  ",
"  ..XXXoooooooooooooooooooooooooooooooooooXX..  ",
"  ..XXoooooooooooooooooooooooooooooooooooXXX..  ",
"  .XXXooXooooooooooooooooooooooooooooooooXXXX.  ",
"  .XXoooooooooooooooooooooooooooooooooooooXXX.  ",
"  .XXooooooooooooooooooooooooooooooooooXooXXX.  ",
"  .XXXooooooooooooooooooooooooooooooooooooXXX.  ",
"  ..XXooooooooooooooooooooooooooooooooooooXXX.  ",
"  ..XXooooooooooooooooooooooooooooooXooooXXXX.  ",
"  .XXXXooXooooooooooooooooooooooooooooooooXX..  ",
"  .XXXoooooooooooooooooooooooooooooooooXoooX..  ",
"  .XXooooooooooooooooooooooooooooooooooooooXX.  ",
"  .XXXoooooooooooooooooooooooooooooooooooooXX.  ",
"  .XXoooooooooooooooooooooooooooooooooooooXX..  ",
"  .XXXooooooooooooooooooooooooooooooooooooXX..  ",
"  ..XXXooooooooooooooooooooooooooooooXoooXXXX.  ",
"  ..XXooooXoooooooooooooooooooooooooooooooXXX.  ",
"  .XXXXooooooooooooooooooooooooooooooooooXXXX.  ",
"  .XXXoooooooXooooooooooooooooooooooooooooXX..  ",
"  ..XXooooooooooooXoooooooooXoooooooooooooXX..  ",
"  ..XXXXoooooooooooooooooooooooooooXooXooXXX..  ",
"   .XXXooooXooooooooooXooooooooooooooooooXX..   ",
"   ..XXXooXooooooooXooooooXooXooooooooooXXX..   ",
"   ..XXXXXXXXoXoooXXXXoooXXXXXXoooXooXXXXXX..   ",
"    ..XXXXXXXXXXXXXXXXXXXXXXXXXXXXXXXXXXXX..    ",
"     ......X..XXXX...XXXXX...XXXXX..XX.....     ",
"        ................................        ",
"                                                ",
"                                                "
};
